<?xml version="1.0" encoding="utf-8" standalone="no"?>
<!DOCTYPE svg PUBLIC "-//W3C//DTD SVG 1.1//EN"
  "http://www.w3.org/Graphics/SVG/1.1/DTD/svg11.dtd">
<svg xmlns:xlink="http://www.w3.org/1999/xlink" width="409.361562pt" height="409.194375pt" viewBox="0 0 409.361562 409.194375" xmlns="http://www.w3.org/2000/svg" version="1.1">
 <metadata>
  <rdf:RDF xmlns:dc="http://purl.org/dc/elements/1.1/" xmlns:cc="http://creativecommons.org/ns#" xmlns:rdf="http://www.w3.org/1999/02/22-rdf-syntax-ns#">
   <cc:Work>
    <dc:type rdf:resource="http://purl.org/dc/dcmitype/StillImage"/>
    <dc:date>2026-02-20T19:03:56.219141</dc:date>
    <dc:format>image/svg+xml</dc:format>
    <dc:creator>
     <cc:Agent>
      <dc:title>Matplotlib v3.10.8, https://matplotlib.org/</dc:title>
     </cc:Agent>
    </dc:creator>
   </cc:Work>
  </rdf:RDF>
 </metadata>
 <defs>
  <style type="text/css">*{stroke-linejoin: round; stroke-linecap: butt}</style>
 </defs>
 <g id="figure_1">
  <g id="patch_1">
   <path d="M 0 409.194375 
L 409.361562 409.194375 
L 409.361562 0 
L 0 0 
z
" style="fill: #ffffff"/>
  </g>
  <g id="axes_1">
   <g id="patch_2">
    <path d="M 55.949375 361.96 
L 391.029375 361.96 
L 391.029375 26.88 
L 55.949375 26.88 
z
" style="fill: #ffffff"/>
   </g>
   <g id="QuadContourSet_1">
    <path d="M 56.619535 361.96 
L 57.289695 361.96 
L 57.959855 361.96 
L 58.630015 361.96 
L 59.300175 361.96 
L 59.970335 361.96 
L 60.640495 361.96 
L 61.310655 361.96 
L 61.980815 361.96 
L 62.650975 361.96 
L 63.321135 361.96 
L 63.991295 361.96 
L 64.661455 361.96 
L 65.331615 361.96 
L 66.001775 361.96 
L 66.671935 361.96 
L 67.342095 361.96 
L 68.012255 361.96 
L 68.682415 361.96 
L 69.352575 361.96 
L 70.022735 361.96 
L 70.692895 361.96 
L 71.363055 361.96 
L 72.033215 361.96 
L 72.703375 361.96 
L 73.373535 361.96 
L 74.043695 361.96 
L 74.713855 361.96 
L 75.384015 361.96 
L 76.054175 361.96 
L 76.724335 361.96 
L 77.394495 361.96 
L 78.064655 361.96 
L 78.734815 361.96 
L 79.404975 361.96 
L 80.075135 361.96 
L 80.745295 361.96 
L 81.415455 361.96 
L 82.085615 361.96 
L 82.755775 361.96 
L 83.425935 361.96 
L 84.096095 361.96 
L 84.766255 361.96 
L 85.436415 361.96 
L 86.106575 361.96 
L 86.776735 361.96 
L 87.446895 361.96 
L 88.117055 361.96 
L 88.787215 361.96 
L 89.457375 361.96 
L 90.127535 361.96 
L 90.797695 361.96 
L 91.467855 361.96 
L 92.138015 361.96 
L 92.808175 361.96 
L 93.478335 361.96 
L 94.148495 361.96 
L 94.818655 361.96 
L 95.488815 361.96 
L 96.158975 361.96 
L 96.829135 361.96 
L 97.499295 361.96 
L 98.169455 361.96 
L 98.839615 361.96 
L 99.509775 361.96 
L 100.179935 361.96 
L 100.850095 361.96 
L 101.520255 361.96 
L 102.190415 361.96 
L 102.860575 361.96 
L 103.530735 361.96 
L 104.200895 361.96 
L 104.871055 361.96 
L 105.541215 361.96 
L 106.211375 361.96 
L 106.881535 361.96 
L 107.551695 361.96 
L 108.221855 361.96 
L 108.892015 361.96 
L 109.562175 361.96 
L 110.232335 361.96 
L 110.902495 361.96 
L 111.572655 361.96 
L 112.242815 361.96 
L 112.912975 361.96 
L 113.583135 361.96 
L 114.253295 361.96 
L 114.923455 361.96 
L 115.593615 361.96 
L 116.263775 361.96 
L 116.933935 361.96 
L 117.604095 361.96 
L 118.274255 361.96 
L 118.944415 361.96 
L 119.614575 361.96 
L 120.284735 361.96 
L 120.954895 361.96 
L 121.625055 361.96 
L 122.295215 361.96 
L 122.965375 361.96 
L 123.635535 361.96 
L 124.305695 361.96 
L 124.975855 361.96 
L 125.646015 361.96 
L 126.316175 361.96 
L 126.986335 361.96 
L 127.656495 361.96 
L 128.326655 361.96 
L 128.996815 361.96 
L 129.666975 361.96 
L 130.337135 361.96 
L 131.007295 361.96 
L 131.677455 361.96 
L 132.347615 361.96 
L 133.017775 361.96 
L 133.687935 361.96 
L 134.358095 361.96 
L 135.028255 361.96 
L 135.698415 361.96 
L 136.368575 361.96 
L 137.038735 361.96 
L 137.708895 361.96 
L 138.379055 361.96 
L 139.049215 361.96 
L 139.719375 361.96 
L 140.389535 361.96 
L 141.059695 361.96 
L 141.729855 361.96 
L 142.400015 361.96 
L 143.070175 361.96 
L 143.740335 361.96 
L 144.410495 361.96 
L 145.080655 361.96 
L 145.750815 361.96 
L 146.420975 361.96 
L 147.091135 361.96 
L 147.761295 361.96 
L 148.431455 361.96 
L 149.101615 361.96 
L 149.771775 361.96 
L 150.441935 361.96 
L 151.112095 361.96 
L 151.782255 361.96 
L 152.452415 361.96 
L 153.122575 361.96 
L 153.792735 361.96 
L 154.462895 361.96 
L 155.133055 361.96 
L 155.803215 361.96 
L 156.473375 361.96 
L 157.143535 361.96 
L 157.813695 361.96 
L 158.483855 361.96 
L 159.154015 361.96 
L 159.824175 361.96 
L 160.494335 361.96 
L 161.164495 361.96 
L 161.834655 361.96 
L 162.504815 361.96 
L 163.174975 361.96 
L 163.845135 361.96 
L 164.515295 361.96 
L 165.185455 361.96 
L 165.855615 361.96 
L 166.525775 361.96 
L 167.195935 361.96 
L 167.866095 361.96 
L 168.536255 361.96 
L 169.206415 361.96 
L 169.876575 361.96 
L 170.546735 361.96 
L 171.216895 361.96 
L 171.887055 361.96 
L 172.557215 361.96 
L 173.227375 361.96 
L 173.897535 361.96 
L 174.567695 361.96 
L 175.237855 361.96 
L 175.908015 361.96 
L 176.578175 361.96 
L 177.248335 361.96 
L 177.918495 361.96 
L 178.588655 361.96 
L 179.258815 361.96 
L 179.928975 361.96 
L 180.599135 361.96 
L 181.269295 361.96 
L 181.939455 361.96 
L 182.609615 361.96 
L 183.279775 361.96 
L 183.949935 361.96 
L 184.620095 361.96 
L 185.290255 361.96 
L 185.960415 361.96 
L 186.630575 361.96 
L 187.300735 361.96 
L 187.970895 361.96 
L 188.641055 361.96 
L 189.311215 361.96 
L 189.981375 361.96 
L 190.651535 361.96 
L 191.321695 361.96 
L 191.991855 361.96 
L 192.662015 361.96 
L 193.332175 361.96 
L 194.002335 361.96 
L 194.672495 361.96 
L 195.342655 361.96 
L 196.012815 361.96 
L 196.682975 361.96 
L 197.353135 361.96 
L 198.023295 361.96 
L 198.693455 361.96 
L 199.363615 361.96 
L 200.033775 361.96 
L 200.703935 361.96 
L 201.374095 361.96 
L 202.044255 361.96 
L 202.714415 361.96 
L 203.384575 361.96 
L 204.054735 361.96 
L 204.724895 361.96 
L 205.395055 361.96 
L 206.065215 361.96 
L 206.735375 361.96 
L 207.405535 361.96 
L 208.075695 361.96 
L 208.745855 361.96 
L 209.416015 361.96 
L 210.086175 361.96 
L 210.756335 361.96 
L 211.426495 361.96 
L 212.096655 361.96 
L 212.766815 361.96 
L 213.436975 361.96 
L 214.107135 361.96 
L 214.777295 361.96 
L 215.447455 361.96 
L 216.117615 361.96 
L 216.787775 361.96 
L 217.457935 361.96 
L 218.128095 361.96 
L 218.798255 361.96 
L 219.468415 361.96 
L 220.138575 361.96 
L 220.808735 361.96 
L 221.478895 361.96 
L 222.149055 361.96 
L 222.819215 361.96 
L 223.489375 361.96 
L 224.159535 361.96 
L 224.829695 361.96 
L 225.499855 361.96 
L 226.170015 361.96 
L 226.840175 361.96 
L 227.510335 361.96 
L 228.180495 361.96 
L 228.850655 361.96 
L 229.520815 361.96 
L 230.190975 361.96 
L 230.861135 361.96 
L 231.531295 361.96 
L 232.201455 361.96 
L 232.871615 361.96 
L 233.541775 361.96 
L 234.211935 361.96 
L 234.882095 361.96 
L 235.552255 361.96 
L 236.222415 361.96 
L 236.892575 361.96 
L 237.562735 361.96 
L 238.232895 361.96 
L 238.903055 361.96 
L 239.573215 361.96 
L 240.243375 361.96 
L 240.913535 361.96 
L 241.583695 361.96 
L 242.253855 361.96 
L 242.924015 361.96 
L 243.594175 361.96 
L 244.264335 361.96 
L 244.934495 361.96 
L 245.604655 361.96 
L 246.274815 361.96 
L 246.944975 361.96 
L 247.615135 361.96 
L 248.285295 361.96 
L 248.955455 361.96 
L 249.625615 361.96 
L 250.295775 361.96 
L 250.965935 361.96 
L 251.636095 361.96 
L 252.306255 361.96 
L 252.976415 361.96 
L 253.646575 361.96 
L 254.316735 361.96 
L 254.986895 361.96 
L 255.657055 361.96 
L 256.327215 361.96 
L 256.997375 361.96 
L 257.667535 361.96 
L 258.337695 361.96 
L 259.007855 361.96 
L 259.678015 361.96 
L 260.348175 361.96 
L 261.018335 361.96 
L 261.688495 361.96 
L 262.358655 361.96 
L 263.028815 361.96 
L 263.698975 361.96 
L 264.369135 361.96 
L 265.039295 361.96 
L 265.709455 361.96 
L 266.379615 361.96 
L 267.049775 361.96 
L 267.719935 361.96 
L 268.390095 361.96 
L 269.060255 361.96 
L 269.730415 361.96 
L 270.400575 361.96 
L 271.070735 361.96 
L 271.740895 361.96 
L 272.411055 361.96 
L 273.081215 361.96 
L 273.751375 361.96 
L 274.421535 361.96 
L 275.091695 361.96 
L 275.761855 361.96 
L 276.432015 361.96 
L 277.102175 361.96 
L 277.772335 361.96 
L 278.442495 361.96 
L 279.112655 361.96 
L 279.782815 361.96 
L 280.452975 361.96 
L 281.123135 361.96 
L 281.793295 361.96 
L 282.463455 361.96 
L 283.133615 361.96 
L 283.803775 361.96 
L 284.473935 361.96 
L 285.144095 361.96 
L 285.814255 361.96 
L 286.484415 361.96 
L 287.154575 361.96 
L 287.824735 361.96 
L 288.494895 361.96 
L 289.165055 361.96 
L 289.835215 361.96 
L 290.505375 361.96 
L 291.175535 361.96 
L 291.845695 361.96 
L 292.515855 361.96 
L 293.186015 361.96 
L 293.856175 361.96 
L 294.526335 361.96 
L 295.196495 361.96 
L 295.866655 361.96 
L 296.536815 361.96 
L 297.206975 361.96 
L 297.877135 361.96 
L 298.547295 361.96 
L 299.217455 361.96 
L 299.887615 361.96 
L 300.557775 361.96 
L 301.227935 361.96 
L 301.898095 361.96 
L 302.568255 361.96 
L 303.238415 361.96 
L 303.908575 361.96 
L 304.578735 361.96 
L 305.248895 361.96 
L 305.919055 361.96 
L 306.589215 361.96 
L 307.259375 361.96 
L 307.929535 361.96 
L 308.599695 361.96 
L 309.269855 361.96 
L 309.940015 361.96 
L 310.610175 361.96 
L 311.280335 361.96 
L 311.950495 361.96 
L 312.620655 361.96 
L 313.290815 361.96 
L 313.960975 361.96 
L 314.631135 361.96 
L 315.301295 361.96 
L 315.971455 361.96 
L 316.641615 361.96 
L 317.311775 361.96 
L 317.981935 361.96 
L 318.652095 361.96 
L 319.322255 361.96 
L 319.992415 361.96 
L 320.662575 361.96 
L 321.332735 361.96 
L 322.002895 361.96 
L 322.673055 361.96 
L 323.343215 361.96 
L 324.013375 361.96 
L 324.683535 361.96 
L 325.353695 361.96 
L 326.023855 361.96 
L 326.694015 361.96 
L 327.364175 361.96 
L 328.034335 361.96 
L 328.704495 361.96 
L 329.374655 361.96 
L 330.044815 361.96 
L 330.714975 361.96 
L 331.385135 361.96 
L 332.055295 361.96 
L 332.725455 361.96 
L 333.395615 361.96 
L 334.065775 361.96 
L 334.735935 361.96 
L 335.406095 361.96 
L 336.076255 361.96 
L 336.746415 361.96 
L 337.416575 361.96 
L 338.086735 361.96 
L 338.756895 361.96 
L 339.427055 361.96 
L 340.097215 361.96 
L 340.767375 361.96 
L 341.437535 361.96 
L 342.107695 361.96 
L 342.777855 361.96 
L 343.448015 361.96 
L 344.118175 361.96 
L 344.788335 361.96 
L 345.458495 361.96 
L 346.128655 361.96 
L 346.798815 361.96 
L 347.468975 361.96 
L 348.139135 361.96 
L 348.809295 361.96 
L 349.479455 361.96 
L 350.149615 361.96 
L 350.819775 361.96 
L 351.489935 361.96 
L 352.160095 361.96 
L 352.830255 361.96 
L 353.500415 361.96 
L 354.170575 361.96 
L 354.840735 361.96 
L 355.510895 361.96 
L 356.181055 361.96 
L 356.851215 361.96 
L 357.521375 361.96 
L 358.191535 361.96 
L 358.861695 361.96 
L 359.531855 361.96 
L 360.202015 361.96 
L 360.872175 361.96 
L 361.542335 361.96 
L 362.212495 361.96 
L 362.882655 361.96 
L 363.552815 361.96 
L 364.222975 361.96 
L 364.893135 361.96 
L 365.563295 361.96 
L 366.233455 361.96 
L 366.903615 361.96 
L 367.573775 361.96 
L 368.243935 361.96 
L 368.914095 361.96 
L 369.584255 361.96 
L 370.254415 361.96 
L 370.924575 361.96 
L 371.594735 361.96 
L 372.264895 361.96 
L 372.935055 361.96 
L 373.605215 361.96 
L 374.275375 361.96 
L 374.945535 361.96 
L 375.615695 361.96 
L 376.285855 361.96 
L 376.956015 361.96 
L 377.626175 361.96 
L 378.296335 361.96 
L 378.966495 361.96 
L 379.636655 361.96 
L 380.306815 361.96 
L 380.976975 361.96 
L 381.647135 361.96 
L 382.317295 361.96 
L 382.987455 361.96 
L 383.657615 361.96 
L 384.327775 361.96 
L 384.997935 361.96 
L 385.668095 361.96 
L 386.338255 361.96 
L 387.008415 361.96 
L 387.678575 361.96 
L 388.348735 361.96 
L 389.018895 361.96 
L 389.689055 361.96 
L 390.359215 361.96 
L 391.029375 361.96 
L 391.029375 361.28984 
L 391.029375 360.61968 
L 391.029375 359.94952 
L 391.029375 359.27936 
L 391.029375 358.6092 
L 391.029375 357.93904 
L 391.029375 357.26888 
L 391.029375 356.59872 
L 391.029375 355.92856 
L 391.029375 355.2584 
L 391.029375 354.58824 
L 391.029375 353.91808 
L 391.029375 353.24792 
L 391.029375 352.57776 
L 391.029375 351.9076 
L 391.029375 351.23744 
L 391.029375 350.56728 
L 391.029375 349.89712 
L 391.029375 349.22696 
L 391.029375 348.5568 
L 391.029375 347.88664 
L 391.029375 347.21648 
L 391.029375 346.54632 
L 391.029375 345.87616 
L 391.029375 345.206 
L 391.029375 344.53584 
L 391.029375 343.86568 
L 391.029375 343.19552 
L 391.029375 342.52536 
L 391.029375 341.8552 
L 391.029375 341.18504 
L 391.029375 340.51488 
L 391.029375 339.84472 
L 391.029375 339.17456 
L 391.029375 338.5044 
L 391.029375 337.83424 
L 391.029375 337.16408 
L 391.029375 336.49392 
L 391.029375 335.82376 
L 391.029375 335.1536 
L 391.029375 334.48344 
L 391.029375 333.81328 
L 391.029375 333.14312 
L 391.029375 332.47296 
L 391.029375 331.8028 
L 391.029375 331.13264 
L 391.029375 330.46248 
L 391.029375 329.79232 
L 391.029375 329.12216 
L 391.029375 328.452 
L 391.029375 327.78184 
L 391.029375 327.11168 
L 391.029375 326.44152 
L 391.029375 325.77136 
L 391.029375 325.1012 
L 391.029375 324.43104 
L 391.029375 323.76088 
L 391.029375 323.09072 
L 391.029375 322.42056 
L 391.029375 321.7504 
L 391.029375 321.08024 
L 391.029375 320.41008 
L 391.029375 319.73992 
L 391.029375 319.06976 
L 391.029375 318.3996 
L 391.029375 317.72944 
L 391.029375 317.05928 
L 391.029375 316.38912 
L 391.029375 315.71896 
L 391.029375 315.0488 
L 391.029375 314.37864 
L 391.029375 313.70848 
L 391.029375 313.03832 
L 391.029375 312.36816 
L 391.029375 311.698 
L 391.029375 311.02784 
L 391.029375 310.35768 
L 391.029375 309.68752 
L 391.029375 309.01736 
L 391.029375 308.3472 
L 391.029375 307.67704 
L 391.029375 307.00688 
L 391.029375 306.33672 
L 391.029375 305.66656 
L 391.029375 304.9964 
L 391.029375 304.32624 
L 391.029375 303.65608 
L 391.029375 302.98592 
L 391.029375 302.31576 
L 391.029375 301.6456 
L 391.029375 300.97544 
L 391.029375 300.30528 
L 391.029375 299.63512 
L 391.029375 298.96496 
L 391.029375 298.2948 
L 391.029375 297.62464 
L 391.029375 296.95448 
L 391.029375 296.28432 
L 391.029375 295.61416 
L 391.029375 294.944 
L 391.029375 294.27384 
L 391.029375 293.60368 
L 391.029375 292.93352 
L 391.029375 292.26336 
L 391.029375 291.5932 
L 391.029375 290.92304 
L 391.029375 290.25288 
L 391.029375 289.58272 
L 391.029375 288.91256 
L 391.029375 288.2424 
L 391.029375 287.57224 
L 391.029375 286.90208 
L 391.029375 286.23192 
L 391.029375 285.56176 
L 391.029375 284.8916 
L 391.029375 284.22144 
L 391.029375 283.55128 
L 391.029375 282.88112 
L 391.029375 282.21096 
L 391.029375 281.5408 
L 391.029375 280.87064 
L 391.029375 280.20048 
L 391.029375 279.53032 
L 391.029375 278.86016 
L 391.029375 278.19 
L 391.029375 277.51984 
L 391.029375 276.84968 
L 391.029375 276.17952 
L 391.029375 275.50936 
L 391.029375 274.8392 
L 391.029375 274.16904 
L 391.029375 273.49888 
L 391.029375 272.82872 
L 391.029375 272.15856 
L 391.029375 271.4884 
L 391.029375 270.81824 
L 391.029375 270.14808 
L 391.029375 269.47792 
L 391.029375 268.80776 
L 391.029375 268.1376 
L 391.029375 267.46744 
L 391.029375 266.79728 
L 391.029375 266.12712 
L 391.029375 265.45696 
L 391.029375 264.7868 
L 391.029375 264.11664 
L 391.029375 263.44648 
L 391.029375 262.77632 
L 391.029375 262.10616 
L 391.029375 261.436 
L 391.029375 260.76584 
L 391.029375 260.09568 
L 391.029375 259.42552 
L 391.029375 258.75536 
L 391.029375 258.0852 
L 391.029375 257.41504 
L 391.029375 256.74488 
L 391.029375 256.07472 
L 391.029375 255.40456 
L 391.029375 254.7344 
L 391.029375 254.06424 
L 391.029375 253.39408 
L 391.029375 252.72392 
L 391.029375 252.05376 
L 391.029375 251.3836 
L 391.029375 250.71344 
L 391.029375 250.04328 
L 391.029375 249.37312 
L 391.029375 248.70296 
L 391.029375 248.0328 
L 391.029375 247.36264 
L 391.029375 246.69248 
L 391.029375 246.02232 
L 391.029375 245.35216 
L 391.029375 244.682 
L 391.029375 244.01184 
L 391.029375 243.34168 
L 391.029375 242.67152 
L 391.029375 242.00136 
L 391.029375 241.3312 
L 391.029375 240.66104 
L 391.029375 239.99088 
L 391.029375 239.32072 
L 391.029375 238.65056 
L 391.029375 237.9804 
L 391.029375 237.31024 
L 391.029375 236.64008 
L 391.029375 235.96992 
L 391.029375 235.29976 
L 391.029375 234.6296 
L 391.029375 233.95944 
L 391.029375 233.28928 
L 391.029375 232.61912 
L 391.029375 231.94896 
L 391.029375 231.2788 
L 391.029375 230.60864 
L 391.029375 229.93848 
L 391.029375 229.26832 
L 391.029375 228.59816 
L 391.029375 227.928 
L 391.029375 227.25784 
L 391.029375 226.58768 
L 391.029375 225.91752 
L 391.029375 225.24736 
L 391.029375 224.5772 
L 391.029375 223.90704 
L 391.029375 223.23688 
L 391.029375 222.56672 
L 391.029375 221.89656 
L 391.029375 221.2264 
L 391.029375 220.55624 
L 391.029375 219.88608 
L 391.029375 219.21592 
L 391.029375 218.54576 
L 391.029375 217.8756 
L 391.029375 217.20544 
L 391.029375 216.53528 
L 391.029375 215.86512 
L 391.029375 215.19496 
L 391.029375 214.5248 
L 391.029375 213.85464 
L 391.029375 213.18448 
L 391.029375 212.51432 
L 391.029375 211.84416 
L 391.029375 211.174 
L 391.029375 210.50384 
L 391.029375 209.83368 
L 391.029375 209.16352 
L 391.029375 208.49336 
L 391.029375 207.8232 
L 391.029375 207.15304 
L 391.029375 206.48288 
L 391.029375 205.81272 
L 391.029375 205.14256 
L 391.029375 204.4724 
L 391.029375 203.80224 
L 391.029375 203.13208 
L 391.029375 202.46192 
L 391.029375 201.79176 
L 391.029375 201.1216 
L 391.029375 200.45144 
L 391.029375 199.78128 
L 391.029375 199.11112 
L 391.029375 198.44096 
L 391.029375 197.7708 
L 391.029375 197.10064 
L 391.029375 196.43048 
L 391.029375 195.76032 
L 391.029375 195.09016 
L 391.029375 194.42 
L 391.029375 193.74984 
L 391.029375 193.07968 
L 391.029375 192.40952 
L 391.029375 191.73936 
L 391.029375 191.0692 
L 391.029375 190.39904 
L 391.029375 189.72888 
L 391.029375 189.05872 
L 391.029375 188.38856 
L 391.029375 187.7184 
L 391.029375 187.04824 
L 391.029375 186.37808 
L 391.029375 185.70792 
L 391.029375 185.03776 
L 391.029375 184.3676 
L 391.029375 183.69744 
L 391.029375 183.02728 
L 391.029375 182.35712 
L 391.029375 181.68696 
L 391.029375 181.0168 
L 391.029375 180.34664 
L 391.029375 179.67648 
L 391.029375 179.00632 
L 391.029375 178.33616 
L 391.029375 177.666 
L 391.029375 176.99584 
L 391.029375 176.32568 
L 391.029375 175.65552 
L 391.029375 174.98536 
L 391.029375 174.3152 
L 391.029375 173.64504 
L 391.029375 172.97488 
L 391.029375 172.30472 
L 391.029375 171.63456 
L 391.029375 170.9644 
L 391.029375 170.29424 
L 391.029375 169.62408 
L 391.029375 168.95392 
L 391.029375 168.28376 
L 391.029375 167.6136 
L 391.029375 166.94344 
L 391.029375 166.27328 
L 391.029375 165.60312 
L 391.029375 164.93296 
L 391.029375 164.2628 
L 391.029375 163.59264 
L 391.029375 162.92248 
L 391.029375 162.25232 
L 391.029375 161.58216 
L 391.029375 160.912 
L 391.029375 160.24184 
L 391.029375 159.57168 
L 391.029375 158.90152 
L 391.029375 158.23136 
L 391.029375 157.5612 
L 391.029375 156.89104 
L 391.029375 156.22088 
L 391.029375 155.55072 
L 391.029375 154.88056 
L 391.029375 154.2104 
L 391.029375 153.54024 
L 391.029375 152.87008 
L 391.029375 152.19992 
L 391.029375 151.52976 
L 391.029375 150.8596 
L 391.029375 150.18944 
L 391.029375 149.51928 
L 391.029375 148.84912 
L 391.029375 148.17896 
L 391.029375 147.5088 
L 391.029375 146.83864 
L 391.029375 146.16848 
L 391.029375 145.49832 
L 391.029375 144.82816 
L 391.029375 144.158 
L 391.029375 143.48784 
L 391.029375 142.81768 
L 391.029375 142.14752 
L 391.029375 141.47736 
L 391.029375 140.8072 
L 391.029375 140.13704 
L 391.029375 139.46688 
L 391.029375 138.79672 
L 391.029375 138.12656 
L 391.029375 137.4564 
L 391.029375 136.78624 
L 391.029375 136.11608 
L 391.029375 135.44592 
L 391.029375 134.77576 
L 391.029375 134.1056 
L 391.029375 133.43544 
L 391.029375 132.76528 
L 391.029375 132.09512 
L 391.029375 131.42496 
L 391.029375 130.7548 
L 391.029375 130.08464 
L 391.029375 129.41448 
L 391.029375 128.74432 
L 391.029375 128.07416 
L 391.029375 127.404 
L 391.029375 126.73384 
L 391.029375 126.06368 
L 391.029375 125.39352 
L 391.029375 124.72336 
L 391.029375 124.0532 
L 391.029375 123.38304 
L 391.029375 122.71288 
L 391.029375 122.04272 
L 391.029375 121.37256 
L 391.029375 120.7024 
L 391.029375 120.03224 
L 391.029375 119.36208 
L 391.029375 118.69192 
L 391.029375 118.02176 
L 391.029375 117.3516 
L 391.029375 116.68144 
L 391.029375 116.01128 
L 391.029375 115.34112 
L 391.029375 114.67096 
L 391.029375 114.0008 
L 391.029375 113.33064 
L 391.029375 112.66048 
L 391.029375 111.99032 
L 391.029375 111.32016 
L 391.029375 110.65 
L 391.029375 109.97984 
L 391.029375 109.30968 
L 391.029375 108.63952 
L 391.029375 107.96936 
L 391.029375 107.2992 
L 391.029375 106.62904 
L 391.029375 105.95888 
L 391.029375 105.28872 
L 391.029375 104.61856 
L 391.029375 103.9484 
L 391.029375 103.27824 
L 391.029375 102.60808 
L 391.029375 101.93792 
L 391.029375 101.26776 
L 391.029375 100.5976 
L 391.029375 99.92744 
L 391.029375 99.25728 
L 391.029375 98.58712 
L 391.029375 97.91696 
L 391.029375 97.2468 
L 391.029375 96.57664 
L 391.029375 95.90648 
L 391.029375 95.23632 
L 391.029375 94.56616 
L 391.029375 93.896 
L 391.029375 93.22584 
L 391.029375 92.55568 
L 391.029375 91.88552 
L 391.029375 91.21536 
L 391.029375 90.5452 
L 391.029375 89.87504 
L 391.029375 89.20488 
L 391.029375 88.53472 
L 391.029375 87.86456 
L 391.029375 87.1944 
L 391.029375 86.52424 
L 391.029375 85.85408 
L 391.029375 85.18392 
L 391.029375 84.51376 
L 391.029375 83.8436 
L 391.029375 83.17344 
L 391.029375 82.50328 
L 391.029375 81.83312 
L 391.029375 81.16296 
L 391.029375 80.4928 
L 391.029375 79.82264 
L 391.029375 79.15248 
L 391.029375 78.48232 
L 391.029375 77.81216 
L 391.029375 77.142 
L 391.029375 76.47184 
L 391.029375 75.80168 
L 391.029375 75.13152 
L 391.029375 74.46136 
L 391.029375 73.7912 
L 391.029375 73.12104 
L 391.029375 72.45088 
L 391.029375 71.78072 
L 391.029375 71.11056 
L 391.029375 70.4404 
L 391.029375 69.77024 
L 391.029375 69.10008 
L 391.029375 68.42992 
L 391.029375 67.75976 
L 391.029375 67.0896 
L 391.029375 66.41944 
L 391.029375 65.74928 
L 391.029375 65.07912 
L 391.029375 64.40896 
L 391.029375 63.7388 
L 391.029375 63.06864 
L 391.029375 62.39848 
L 391.029375 61.72832 
L 391.029375 61.05816 
L 391.029375 60.388 
L 391.029375 60.388 
L 390.359215 60.388 
L 389.689055 60.388 
L 389.018895 60.388 
L 388.348735 60.388 
L 387.678575 60.388 
L 387.008415 60.388 
L 386.338255 60.388 
L 385.668095 60.388 
L 384.997935 60.388 
L 384.327775 60.388 
L 383.657615 60.388 
L 382.987455 60.388 
L 382.317295 60.388 
L 381.647135 60.388 
L 380.976975 60.388 
L 380.306815 60.388 
L 379.636655 60.388 
L 378.966495 60.388 
L 378.296335 60.388 
L 377.626175 60.388 
L 376.956015 60.388 
L 376.285855 60.388 
L 375.615695 60.388 
L 374.945535 60.388 
L 374.275375 60.388 
L 373.605215 60.388 
L 372.935055 60.388 
L 372.264895 60.388 
L 371.594735 60.388 
L 370.924575 60.388 
L 370.254415 60.388 
L 369.584255 60.388 
L 368.914095 60.388 
L 368.243935 60.388 
L 367.573775 60.388 
L 366.903615 60.388 
L 366.233455 60.388 
L 365.563295 60.388 
L 364.893135 60.388 
L 364.222975 60.388 
L 363.552815 60.388 
L 362.882655 60.388 
L 362.212495 60.388 
L 361.542335 60.388 
L 360.872175 60.388 
L 360.202015 60.388 
L 359.531855 60.388 
L 358.861695 60.388 
L 358.191535 60.388 
L 357.521375 60.388 
L 356.851215 60.388 
L 356.181055 60.388 
L 355.510895 60.388 
L 354.840735 60.388 
L 354.170575 60.388 
L 353.500415 60.388 
L 352.830255 60.388 
L 352.160095 60.388 
L 351.489935 60.388 
L 350.819775 60.388 
L 350.149615 60.388 
L 349.479455 60.388 
L 348.809295 60.388 
L 348.139135 60.388 
L 347.468975 60.388 
L 346.798815 60.388 
L 346.128655 60.388 
L 345.458495 60.388 
L 344.788335 60.388 
L 344.118175 60.388 
L 343.448015 60.388 
L 342.777855 60.388 
L 342.107695 60.388 
L 341.437535 60.388 
L 340.767375 60.388 
L 340.097215 60.388 
L 339.427055 60.388 
L 338.756895 60.388 
L 338.086735 60.388 
L 337.416575 60.388 
L 336.746415 60.388 
L 336.076255 60.388 
L 335.406095 60.388 
L 334.735935 60.388 
L 334.065775 60.388 
L 333.395615 60.388 
L 332.725455 60.388 
L 332.055295 60.388 
L 331.385135 60.388 
L 330.714975 60.388 
L 330.044815 60.388 
L 329.374655 60.388 
L 328.704495 60.388 
L 328.034335 60.388 
L 327.364175 60.388 
L 326.694015 60.388 
L 326.023855 60.388 
L 325.353695 60.388 
L 324.683535 60.388 
L 324.013375 60.388 
L 323.343215 60.388 
L 322.673055 60.388 
L 322.002895 60.388 
L 321.332735 60.388 
L 320.662575 60.388 
L 319.992415 60.388 
L 319.322255 60.388 
L 318.652095 60.388 
L 317.981935 60.388 
L 317.311775 60.388 
L 316.641615 60.388 
L 315.971455 60.388 
L 315.301295 60.388 
L 314.631135 60.388 
L 313.960975 60.388 
L 313.290815 60.388 
L 312.620655 60.388 
L 311.950495 60.388 
L 311.280335 60.388 
L 310.610175 60.388 
L 309.940015 60.388 
L 309.269855 60.388 
L 308.599695 60.388 
L 307.929535 60.388 
L 307.259375 60.388 
L 306.589215 60.388 
L 305.919055 60.388 
L 305.248895 60.388 
L 304.578735 60.388 
L 303.908575 60.388 
L 303.238415 60.388 
L 302.568255 60.388 
L 301.898095 60.388 
L 301.227935 60.388 
L 300.557775 60.388 
L 299.887615 60.388 
L 299.217455 60.388 
L 298.547295 60.388 
L 297.877135 60.388 
L 297.206975 60.388 
L 296.536815 60.388 
L 295.866655 60.388 
L 295.196495 60.388 
L 294.526335 60.388 
L 293.856175 60.388 
L 293.186015 60.388 
L 292.515855 60.388 
L 291.845695 60.388 
L 291.175535 60.388 
L 290.505375 60.388 
L 289.835215 60.388 
L 289.165055 60.388 
L 288.494895 60.388 
L 287.824735 60.388 
L 287.154575 60.388 
L 286.484415 60.388 
L 285.814255 60.388 
L 285.144095 60.388 
L 284.473935 60.388 
L 283.803775 60.388 
L 283.133615 60.388 
L 282.463455 60.388 
L 281.793295 60.388 
L 281.123135 60.388 
L 280.452975 60.388 
L 279.782815 60.388 
L 279.112655 60.388 
L 278.442495 60.388 
L 277.772335 60.388 
L 277.102175 60.388 
L 276.432015 60.388 
L 275.761855 60.388 
L 275.091695 60.388 
L 274.421535 60.388 
L 273.751375 60.388 
L 273.081215 60.388 
L 272.411055 60.388 
L 271.740895 60.388 
L 271.070735 60.388 
L 270.400575 60.388 
L 269.730415 60.388 
L 269.060255 60.388 
L 268.390095 60.388 
L 267.719935 60.388 
L 267.049775 60.388 
L 266.379615 60.388 
L 265.709455 60.388 
L 265.039295 60.388 
L 264.369135 60.388 
L 263.698975 60.388 
L 263.028815 60.388 
L 262.358655 60.388 
L 261.688495 60.388 
L 261.018335 60.388 
L 260.348175 60.388 
L 259.678015 60.388 
L 259.007855 60.388 
L 258.337695 60.388 
L 257.667535 60.388 
L 256.997375 60.388 
L 256.327215 60.388 
L 255.657055 60.388 
L 254.986895 60.388 
L 254.316735 60.388 
L 253.646575 60.388 
L 252.976415 60.388 
L 252.306255 60.388 
L 251.636095 60.388 
L 250.965935 60.388 
L 250.295775 60.388 
L 249.625615 60.388 
L 248.955455 60.388 
L 248.285295 60.388 
L 247.615135 60.388 
L 246.944975 60.388 
L 246.274815 60.388 
L 245.604655 60.388 
L 244.934495 60.388 
L 244.264335 60.388 
L 243.594175 60.388 
L 242.924015 60.388 
L 242.253855 60.388 
L 241.583695 60.388 
L 240.913535 60.388 
L 240.243375 60.388 
L 239.573215 60.388 
L 238.903055 60.388 
L 238.232895 60.388 
L 237.562735 60.388 
L 236.892575 60.388 
L 236.222415 60.388 
L 235.552255 60.388 
L 234.882095 60.388 
L 234.211935 60.388 
L 233.541775 60.388 
L 232.871615 60.388 
L 232.201455 60.388 
L 231.531295 60.388 
L 230.861135 60.388 
L 230.190975 60.388 
L 229.520815 60.388 
L 228.850655 60.388 
L 228.180495 60.388 
L 227.510335 60.388 
L 226.840175 60.388 
L 226.170015 60.388 
L 225.499855 60.388 
L 224.829695 60.388 
L 224.159535 60.388 
L 223.489375 60.388 
L 222.819215 60.388 
L 222.149055 60.388 
L 221.478895 60.388 
L 220.808735 60.388 
L 220.138575 60.388 
L 219.468415 60.388 
L 218.798255 60.388 
L 218.128095 60.388 
L 217.457935 60.388 
L 216.787775 60.388 
L 216.117615 60.388 
L 215.447455 60.388 
L 214.777295 60.388 
L 214.107135 60.388 
L 213.436975 60.388 
L 212.766815 60.388 
L 212.096655 60.388 
L 211.426495 60.388 
L 210.756335 60.388 
L 210.086175 60.388 
L 209.416015 60.388 
L 208.745855 60.388 
L 208.075695 60.388 
L 207.405535 60.388 
L 206.735375 60.388 
L 206.065215 60.388 
L 205.395055 60.388 
L 204.724895 60.388 
L 204.054735 60.388 
L 203.384575 60.388 
L 202.714415 60.388 
L 202.044255 60.388 
L 201.374095 60.388 
L 200.703935 60.388 
L 200.033775 60.388 
L 199.363615 60.388 
L 198.693455 60.388 
L 198.023295 60.388 
L 197.353135 60.388 
L 196.682975 60.388 
L 196.012815 60.388 
L 195.342655 60.388 
L 194.672495 60.388 
L 194.002335 60.388 
L 193.332175 60.388 
L 192.662015 60.388 
L 191.991855 60.388 
L 191.321695 60.388 
L 190.651535 60.388 
L 189.981375 60.388 
L 189.311215 60.388 
L 188.641055 60.388 
L 187.970895 60.388 
L 187.300735 60.388 
L 186.630575 60.388 
L 185.960415 60.388 
L 185.290255 60.388 
L 184.620095 60.388 
L 183.949935 60.388 
L 183.279775 60.388 
L 182.609615 60.388 
L 181.939455 60.388 
L 181.269295 60.388 
L 180.599135 60.388 
L 179.928975 60.388 
L 179.258815 60.388 
L 178.588655 60.388 
L 177.918495 60.388 
L 177.248335 60.388 
L 176.578175 60.388 
L 175.908015 60.388 
L 175.237855 60.388 
L 174.567695 60.388 
L 173.897535 60.388 
L 173.227375 60.388 
L 172.557215 60.388 
L 171.887055 60.388 
L 171.216895 60.388 
L 170.546735 60.388 
L 169.876575 60.388 
L 169.206415 60.388 
L 168.536255 60.388 
L 167.866095 60.388 
L 167.195935 60.388 
L 166.525775 60.388 
L 165.855615 60.388 
L 165.185455 60.388 
L 164.515295 60.388 
L 163.845135 60.388 
L 163.174975 60.388 
L 162.504815 60.388 
L 161.834655 60.388 
L 161.164495 60.388 
L 160.494335 60.388 
L 159.824175 60.388 
L 159.154015 60.388 
L 158.483855 60.388 
L 157.813695 60.388 
L 157.143535 60.388 
L 156.473375 60.388 
L 155.803215 60.388 
L 155.133055 60.388 
L 154.462895 60.388 
L 153.792735 60.388 
L 153.122575 60.388 
L 152.452415 60.388 
L 151.782255 60.388 
L 151.112095 60.388 
L 150.441935 60.388 
L 149.771775 60.388 
L 149.101615 60.388 
L 148.431455 60.388 
L 147.761295 60.388 
L 147.091135 60.388 
L 146.420975 60.388 
L 145.750815 60.388 
L 145.080655 60.388 
L 144.410495 60.388 
L 143.740335 60.388 
L 143.070175 60.388 
L 142.400015 60.388 
L 141.729855 60.388 
L 141.059695 60.388 
L 140.389535 60.388 
L 139.719375 60.388 
L 139.049215 60.388 
L 138.379055 60.388 
L 137.708895 60.388 
L 137.038735 60.388 
L 136.368575 60.388 
L 135.698415 60.388 
L 135.028255 60.388 
L 134.358095 60.388 
L 133.687935 60.388 
L 133.017775 60.388 
L 132.347615 60.388 
L 131.677455 60.388 
L 131.007295 60.388 
L 130.337135 60.388 
L 129.666975 60.388 
L 128.996815 60.388 
L 128.326655 60.388 
L 127.656495 60.388 
L 126.986335 60.388 
L 126.316175 60.388 
L 125.646015 60.388 
L 124.975855 60.388 
L 124.305695 60.388 
L 123.635535 60.388 
L 122.965375 60.388 
L 122.295215 60.388 
L 121.625055 60.388 
L 120.954895 60.388 
L 120.284735 60.388 
L 119.614575 60.388 
L 118.944415 60.388 
L 118.274255 60.388 
L 117.604095 60.388 
L 116.933935 60.388 
L 116.263775 60.388 
L 115.593615 60.388 
L 114.923455 60.388 
L 114.253295 60.388 
L 113.583135 60.388 
L 112.912975 60.388 
L 112.242815 60.388 
L 111.572655 60.388 
L 110.902495 60.388 
L 110.232335 60.388 
L 109.562175 60.388 
L 108.892015 60.388 
L 108.221855 60.388 
L 107.551695 60.388 
L 106.881535 60.388 
L 106.211375 60.388 
L 105.541215 60.388 
L 104.871055 60.388 
L 104.200895 60.388 
L 103.530735 60.388 
L 102.860575 60.388 
L 102.190415 60.388 
L 101.520255 60.388 
L 100.850095 60.388 
L 100.179935 60.388 
L 99.509775 60.388 
L 98.839615 60.388 
L 98.169455 60.388 
L 97.499295 60.388 
L 96.829135 60.388 
L 96.158975 60.388 
L 95.488815 60.388 
L 94.818655 60.388 
L 94.148495 60.388 
L 93.478335 60.388 
L 92.808175 60.388 
L 92.138015 60.388 
L 91.467855 60.388 
L 90.797695 60.388 
L 90.127535 60.388 
L 89.457375 60.388 
L 88.787215 60.388 
L 88.117055 60.388 
L 87.446895 60.388 
L 86.776735 60.388 
L 86.106575 60.388 
L 85.436415 60.388 
L 84.766255 60.388 
L 84.096095 60.388 
L 83.425935 60.388 
L 82.755775 60.388 
L 82.085615 60.388 
L 81.415455 60.388 
L 80.745295 60.388 
L 80.075135 60.388 
L 79.404975 60.388 
L 78.734815 60.388 
L 78.064655 60.388 
L 77.394495 60.388 
L 76.724335 60.388 
L 76.054175 60.388 
L 75.384015 60.388 
L 74.713855 60.388 
L 74.043695 60.388 
L 73.373535 60.388 
L 72.703375 60.388 
L 72.033215 60.388 
L 71.363055 60.388 
L 70.692895 60.388 
L 70.022735 60.388 
L 69.352575 60.388 
L 68.682415 60.388 
L 68.012255 60.388 
L 67.342095 60.388 
L 66.671935 60.388 
L 66.001775 60.388 
L 65.331615 60.388 
L 64.661455 60.388 
L 63.991295 60.388 
L 63.321135 60.388 
L 62.650975 60.388 
L 61.980815 60.388 
L 61.310655 60.388 
L 60.640495 60.388 
L 59.970335 60.388 
L 59.300175 60.388 
L 58.630015 60.388 
L 57.959855 60.388 
L 57.289695 60.388 
L 56.619535 60.388 
L 55.949375 60.388 
L 55.949375 60.388 
L 55.949375 61.05816 
L 55.949375 61.72832 
L 55.949375 62.39848 
L 55.949375 63.06864 
L 55.949375 63.7388 
L 55.949375 64.40896 
L 55.949375 65.07912 
L 55.949375 65.74928 
L 55.949375 66.41944 
L 55.949375 67.0896 
L 55.949375 67.75976 
L 55.949375 68.42992 
L 55.949375 69.10008 
L 55.949375 69.77024 
L 55.949375 70.4404 
L 55.949375 71.11056 
L 55.949375 71.78072 
L 55.949375 72.45088 
L 55.949375 73.12104 
L 55.949375 73.7912 
L 55.949375 74.46136 
L 55.949375 75.13152 
L 55.949375 75.80168 
L 55.949375 76.47184 
L 55.949375 77.142 
L 55.949375 77.81216 
L 55.949375 78.48232 
L 55.949375 79.15248 
L 55.949375 79.82264 
L 55.949375 80.4928 
L 55.949375 81.16296 
L 55.949375 81.83312 
L 55.949375 82.50328 
L 55.949375 83.17344 
L 55.949375 83.8436 
L 55.949375 84.51376 
L 55.949375 85.18392 
L 55.949375 85.85408 
L 55.949375 86.52424 
L 55.949375 87.1944 
L 55.949375 87.86456 
L 55.949375 88.53472 
L 55.949375 89.20488 
L 55.949375 89.87504 
L 55.949375 90.5452 
L 55.949375 91.21536 
L 55.949375 91.88552 
L 55.949375 92.55568 
L 55.949375 93.22584 
L 55.949375 93.896 
L 55.949375 94.56616 
L 55.949375 95.23632 
L 55.949375 95.90648 
L 55.949375 96.57664 
L 55.949375 97.2468 
L 55.949375 97.91696 
L 55.949375 98.58712 
L 55.949375 99.25728 
L 55.949375 99.92744 
L 55.949375 100.5976 
L 55.949375 101.26776 
L 55.949375 101.93792 
L 55.949375 102.60808 
L 55.949375 103.27824 
L 55.949375 103.9484 
L 55.949375 104.61856 
L 55.949375 105.28872 
L 55.949375 105.95888 
L 55.949375 106.62904 
L 55.949375 107.2992 
L 55.949375 107.96936 
L 55.949375 108.63952 
L 55.949375 109.30968 
L 55.949375 109.97984 
L 55.949375 110.65 
L 55.949375 111.32016 
L 55.949375 111.99032 
L 55.949375 112.66048 
L 55.949375 113.33064 
L 55.949375 114.0008 
L 55.949375 114.67096 
L 55.949375 115.34112 
L 55.949375 116.01128 
L 55.949375 116.68144 
L 55.949375 117.3516 
L 55.949375 118.02176 
L 55.949375 118.69192 
L 55.949375 119.36208 
L 55.949375 120.03224 
L 55.949375 120.7024 
L 55.949375 121.37256 
L 55.949375 122.04272 
L 55.949375 122.71288 
L 55.949375 123.38304 
L 55.949375 124.0532 
L 55.949375 124.72336 
L 55.949375 125.39352 
L 55.949375 126.06368 
L 55.949375 126.73384 
L 55.949375 127.404 
L 55.949375 128.07416 
L 55.949375 128.74432 
L 55.949375 129.41448 
L 55.949375 130.08464 
L 55.949375 130.7548 
L 55.949375 131.42496 
L 55.949375 132.09512 
L 55.949375 132.76528 
L 55.949375 133.43544 
L 55.949375 134.1056 
L 55.949375 134.77576 
L 55.949375 135.44592 
L 55.949375 136.11608 
L 55.949375 136.78624 
L 55.949375 137.4564 
L 55.949375 138.12656 
L 55.949375 138.79672 
L 55.949375 139.46688 
L 55.949375 140.13704 
L 55.949375 140.8072 
L 55.949375 141.47736 
L 55.949375 142.14752 
L 55.949375 142.81768 
L 55.949375 143.48784 
L 55.949375 144.158 
L 55.949375 144.82816 
L 55.949375 145.49832 
L 55.949375 146.16848 
L 55.949375 146.83864 
L 55.949375 147.5088 
L 55.949375 148.17896 
L 55.949375 148.84912 
L 55.949375 149.51928 
L 55.949375 150.18944 
L 55.949375 150.8596 
L 55.949375 151.52976 
L 55.949375 152.19992 
L 55.949375 152.87008 
L 55.949375 153.54024 
L 55.949375 154.2104 
L 55.949375 154.88056 
L 55.949375 155.55072 
L 55.949375 156.22088 
L 55.949375 156.89104 
L 55.949375 157.5612 
L 55.949375 158.23136 
L 55.949375 158.90152 
L 55.949375 159.57168 
L 55.949375 160.24184 
L 55.949375 160.912 
L 55.949375 161.58216 
L 55.949375 162.25232 
L 55.949375 162.92248 
L 55.949375 163.59264 
L 55.949375 164.2628 
L 55.949375 164.93296 
L 55.949375 165.60312 
L 55.949375 166.27328 
L 55.949375 166.94344 
L 55.949375 167.6136 
L 55.949375 168.28376 
L 55.949375 168.95392 
L 55.949375 169.62408 
L 55.949375 170.29424 
L 55.949375 170.9644 
L 55.949375 171.63456 
L 55.949375 172.30472 
L 55.949375 172.97488 
L 55.949375 173.64504 
L 55.949375 174.3152 
L 55.949375 174.98536 
L 55.949375 175.65552 
L 55.949375 176.32568 
L 55.949375 176.99584 
L 55.949375 177.666 
L 55.949375 178.33616 
L 55.949375 179.00632 
L 55.949375 179.67648 
L 55.949375 180.34664 
L 55.949375 181.0168 
L 55.949375 181.68696 
L 55.949375 182.35712 
L 55.949375 183.02728 
L 55.949375 183.69744 
L 55.949375 184.3676 
L 55.949375 185.03776 
L 55.949375 185.70792 
L 55.949375 186.37808 
L 55.949375 187.04824 
L 55.949375 187.7184 
L 55.949375 188.38856 
L 55.949375 189.05872 
L 55.949375 189.72888 
L 55.949375 190.39904 
L 55.949375 191.0692 
L 55.949375 191.73936 
L 55.949375 192.40952 
L 55.949375 193.07968 
L 55.949375 193.74984 
L 55.949375 194.42 
L 55.949375 195.09016 
L 55.949375 195.76032 
L 55.949375 196.43048 
L 55.949375 197.10064 
L 55.949375 197.7708 
L 55.949375 198.44096 
L 55.949375 199.11112 
L 55.949375 199.78128 
L 55.949375 200.45144 
L 55.949375 201.1216 
L 55.949375 201.79176 
L 55.949375 202.46192 
L 55.949375 203.13208 
L 55.949375 203.80224 
L 55.949375 204.4724 
L 55.949375 205.14256 
L 55.949375 205.81272 
L 55.949375 206.48288 
L 55.949375 207.15304 
L 55.949375 207.8232 
L 55.949375 208.49336 
L 55.949375 209.16352 
L 55.949375 209.83368 
L 55.949375 210.50384 
L 55.949375 211.174 
L 55.949375 211.84416 
L 55.949375 212.51432 
L 55.949375 213.18448 
L 55.949375 213.85464 
L 55.949375 214.5248 
L 55.949375 215.19496 
L 55.949375 215.86512 
L 55.949375 216.53528 
L 55.949375 217.20544 
L 55.949375 217.8756 
L 55.949375 218.54576 
L 55.949375 219.21592 
L 55.949375 219.88608 
L 55.949375 220.55624 
L 55.949375 221.2264 
L 55.949375 221.89656 
L 55.949375 222.56672 
L 55.949375 223.23688 
L 55.949375 223.90704 
L 55.949375 224.5772 
L 55.949375 225.24736 
L 55.949375 225.91752 
L 55.949375 226.58768 
L 55.949375 227.25784 
L 55.949375 227.928 
L 55.949375 228.59816 
L 55.949375 229.26832 
L 55.949375 229.93848 
L 55.949375 230.60864 
L 55.949375 231.2788 
L 55.949375 231.94896 
L 55.949375 232.61912 
L 55.949375 233.28928 
L 55.949375 233.95944 
L 55.949375 234.6296 
L 55.949375 235.29976 
L 55.949375 235.96992 
L 55.949375 236.64008 
L 55.949375 237.31024 
L 55.949375 237.9804 
L 55.949375 238.65056 
L 55.949375 239.32072 
L 55.949375 239.99088 
L 55.949375 240.66104 
L 55.949375 241.3312 
L 55.949375 242.00136 
L 55.949375 242.67152 
L 55.949375 243.34168 
L 55.949375 244.01184 
L 55.949375 244.682 
L 55.949375 245.35216 
L 55.949375 246.02232 
L 55.949375 246.69248 
L 55.949375 247.36264 
L 55.949375 248.0328 
L 55.949375 248.70296 
L 55.949375 249.37312 
L 55.949375 250.04328 
L 55.949375 250.71344 
L 55.949375 251.3836 
L 55.949375 252.05376 
L 55.949375 252.72392 
L 55.949375 253.39408 
L 55.949375 254.06424 
L 55.949375 254.7344 
L 55.949375 255.40456 
L 55.949375 256.07472 
L 55.949375 256.74488 
L 55.949375 257.41504 
L 55.949375 258.0852 
L 55.949375 258.75536 
L 55.949375 259.42552 
L 55.949375 260.09568 
L 55.949375 260.76584 
L 55.949375 261.436 
L 55.949375 262.10616 
L 55.949375 262.77632 
L 55.949375 263.44648 
L 55.949375 264.11664 
L 55.949375 264.7868 
L 55.949375 265.45696 
L 55.949375 266.12712 
L 55.949375 266.79728 
L 55.949375 267.46744 
L 55.949375 268.1376 
L 55.949375 268.80776 
L 55.949375 269.47792 
L 55.949375 270.14808 
L 55.949375 270.81824 
L 55.949375 271.4884 
L 55.949375 272.15856 
L 55.949375 272.82872 
L 55.949375 273.49888 
L 55.949375 274.16904 
L 55.949375 274.8392 
L 55.949375 275.50936 
L 55.949375 276.17952 
L 55.949375 276.84968 
L 55.949375 277.51984 
L 55.949375 278.19 
L 55.949375 278.86016 
L 55.949375 279.53032 
L 55.949375 280.20048 
L 55.949375 280.87064 
L 55.949375 281.5408 
L 55.949375 282.21096 
L 55.949375 282.88112 
L 55.949375 283.55128 
L 55.949375 284.22144 
L 55.949375 284.8916 
L 55.949375 285.56176 
L 55.949375 286.23192 
L 55.949375 286.90208 
L 55.949375 287.57224 
L 55.949375 288.2424 
L 55.949375 288.91256 
L 55.949375 289.58272 
L 55.949375 290.25288 
L 55.949375 290.92304 
L 55.949375 291.5932 
L 55.949375 292.26336 
L 55.949375 292.93352 
L 55.949375 293.60368 
L 55.949375 294.27384 
L 55.949375 294.944 
L 55.949375 295.61416 
L 55.949375 296.28432 
L 55.949375 296.95448 
L 55.949375 297.62464 
L 55.949375 298.2948 
L 55.949375 298.96496 
L 55.949375 299.63512 
L 55.949375 300.30528 
L 55.949375 300.97544 
L 55.949375 301.6456 
L 55.949375 302.31576 
L 55.949375 302.98592 
L 55.949375 303.65608 
L 55.949375 304.32624 
L 55.949375 304.9964 
L 55.949375 305.66656 
L 55.949375 306.33672 
L 55.949375 307.00688 
L 55.949375 307.67704 
L 55.949375 308.3472 
L 55.949375 309.01736 
L 55.949375 309.68752 
L 55.949375 310.35768 
L 55.949375 311.02784 
L 55.949375 311.698 
L 55.949375 312.36816 
L 55.949375 313.03832 
L 55.949375 313.70848 
L 55.949375 314.37864 
L 55.949375 315.0488 
L 55.949375 315.71896 
L 55.949375 316.38912 
L 55.949375 317.05928 
L 55.949375 317.72944 
L 55.949375 318.3996 
L 55.949375 319.06976 
L 55.949375 319.73992 
L 55.949375 320.41008 
L 55.949375 321.08024 
L 55.949375 321.7504 
L 55.949375 322.42056 
L 55.949375 323.09072 
L 55.949375 323.76088 
L 55.949375 324.43104 
L 55.949375 325.1012 
L 55.949375 325.77136 
L 55.949375 326.44152 
L 55.949375 327.11168 
L 55.949375 327.78184 
L 55.949375 328.452 
L 55.949375 329.12216 
L 55.949375 329.79232 
L 55.949375 330.46248 
L 55.949375 331.13264 
L 55.949375 331.8028 
L 55.949375 332.47296 
L 55.949375 333.14312 
L 55.949375 333.81328 
L 55.949375 334.48344 
L 55.949375 335.1536 
L 55.949375 335.82376 
L 55.949375 336.49392 
L 55.949375 337.16408 
L 55.949375 337.83424 
L 55.949375 338.5044 
L 55.949375 339.17456 
L 55.949375 339.84472 
L 55.949375 340.51488 
L 55.949375 341.18504 
L 55.949375 341.8552 
L 55.949375 342.52536 
L 55.949375 343.19552 
L 55.949375 343.86568 
L 55.949375 344.53584 
L 55.949375 345.206 
L 55.949375 345.87616 
L 55.949375 346.54632 
L 55.949375 347.21648 
L 55.949375 347.88664 
L 55.949375 348.5568 
L 55.949375 349.22696 
L 55.949375 349.89712 
L 55.949375 350.56728 
L 55.949375 351.23744 
L 55.949375 351.9076 
L 55.949375 352.57776 
L 55.949375 353.24792 
L 55.949375 353.91808 
L 55.949375 354.58824 
L 55.949375 355.2584 
L 55.949375 355.92856 
L 55.949375 356.59872 
L 55.949375 357.26888 
L 55.949375 357.93904 
L 55.949375 358.6092 
L 55.949375 359.27936 
L 55.949375 359.94952 
L 55.949375 360.61968 
L 55.949375 361.28984 
L 55.949375 361.96 
z
" clip-path="url(#p0bfd768167)" style="fill: #ff0000; fill-opacity: 0.3"/>
   </g>
   <g id="matplotlib.axis_1">
    <g id="xtick_1">
     <g id="line2d_1">
      <defs>
       <path id="m8a34535cda" d="M 0 0 
L 0 3.5 
" style="stroke: #000000; stroke-width: 0.8"/>
      </defs>
      <g>
       <use xlink:href="#m8a34535cda" x="55.949375" y="361.96" style="stroke: #000000; stroke-width: 0.8"/>
      </g>
     </g>
     <g id="text_1">
      <!-- 0.0 -->
      <g transform="translate(44.817188 379.597812) scale(0.14 -0.14)">
       <defs>
        <path id="DejaVuSans-30" d="M 2034 4250 
Q 1547 4250 1301 3770 
Q 1056 3291 1056 2328 
Q 1056 1369 1301 889 
Q 1547 409 2034 409 
Q 2525 409 2770 889 
Q 3016 1369 3016 2328 
Q 3016 3291 2770 3770 
Q 2525 4250 2034 4250 
z
M 2034 4750 
Q 2819 4750 3233 4129 
Q 3647 3509 3647 2328 
Q 3647 1150 3233 529 
Q 2819 -91 2034 -91 
Q 1250 -91 836 529 
Q 422 1150 422 2328 
Q 422 3509 836 4129 
Q 1250 4750 2034 4750 
z
" transform="scale(0.015625)"/>
        <path id="DejaVuSans-2e" d="M 684 794 
L 1344 794 
L 1344 0 
L 684 0 
L 684 794 
z
" transform="scale(0.015625)"/>
       </defs>
       <use xlink:href="#DejaVuSans-30"/>
       <use xlink:href="#DejaVuSans-2e" transform="translate(63.623047 0)"/>
       <use xlink:href="#DejaVuSans-30" transform="translate(95.410156 0)"/>
      </g>
     </g>
    </g>
    <g id="xtick_2">
     <g id="line2d_2">
      <g>
       <use xlink:href="#m8a34535cda" x="122.965375" y="361.96" style="stroke: #000000; stroke-width: 0.8"/>
      </g>
     </g>
     <g id="text_2">
      <!-- 0.2 -->
      <g transform="translate(111.833187 379.597812) scale(0.14 -0.14)">
       <defs>
        <path id="DejaVuSans-32" d="M 1228 531 
L 3431 531 
L 3431 0 
L 469 0 
L 469 531 
Q 828 903 1448 1529 
Q 2069 2156 2228 2338 
Q 2531 2678 2651 2914 
Q 2772 3150 2772 3378 
Q 2772 3750 2511 3984 
Q 2250 4219 1831 4219 
Q 1534 4219 1204 4116 
Q 875 4013 500 3803 
L 500 4441 
Q 881 4594 1212 4672 
Q 1544 4750 1819 4750 
Q 2544 4750 2975 4387 
Q 3406 4025 3406 3419 
Q 3406 3131 3298 2873 
Q 3191 2616 2906 2266 
Q 2828 2175 2409 1742 
Q 1991 1309 1228 531 
z
" transform="scale(0.015625)"/>
       </defs>
       <use xlink:href="#DejaVuSans-30"/>
       <use xlink:href="#DejaVuSans-2e" transform="translate(63.623047 0)"/>
       <use xlink:href="#DejaVuSans-32" transform="translate(95.410156 0)"/>
      </g>
     </g>
    </g>
    <g id="xtick_3">
     <g id="line2d_3">
      <g>
       <use xlink:href="#m8a34535cda" x="189.981375" y="361.96" style="stroke: #000000; stroke-width: 0.8"/>
      </g>
     </g>
     <g id="text_3">
      <!-- 0.4 -->
      <g transform="translate(178.849187 379.597812) scale(0.14 -0.14)">
       <defs>
        <path id="DejaVuSans-34" d="M 2419 4116 
L 825 1625 
L 2419 1625 
L 2419 4116 
z
M 2253 4666 
L 3047 4666 
L 3047 1625 
L 3713 1625 
L 3713 1100 
L 3047 1100 
L 3047 0 
L 2419 0 
L 2419 1100 
L 313 1100 
L 313 1709 
L 2253 4666 
z
" transform="scale(0.015625)"/>
       </defs>
       <use xlink:href="#DejaVuSans-30"/>
       <use xlink:href="#DejaVuSans-2e" transform="translate(63.623047 0)"/>
       <use xlink:href="#DejaVuSans-34" transform="translate(95.410156 0)"/>
      </g>
     </g>
    </g>
    <g id="xtick_4">
     <g id="line2d_4">
      <g>
       <use xlink:href="#m8a34535cda" x="256.997375" y="361.96" style="stroke: #000000; stroke-width: 0.8"/>
      </g>
     </g>
     <g id="text_4">
      <!-- 0.6 -->
      <g transform="translate(245.865187 379.597812) scale(0.14 -0.14)">
       <defs>
        <path id="DejaVuSans-36" d="M 2113 2584 
Q 1688 2584 1439 2293 
Q 1191 2003 1191 1497 
Q 1191 994 1439 701 
Q 1688 409 2113 409 
Q 2538 409 2786 701 
Q 3034 994 3034 1497 
Q 3034 2003 2786 2293 
Q 2538 2584 2113 2584 
z
M 3366 4563 
L 3366 3988 
Q 3128 4100 2886 4159 
Q 2644 4219 2406 4219 
Q 1781 4219 1451 3797 
Q 1122 3375 1075 2522 
Q 1259 2794 1537 2939 
Q 1816 3084 2150 3084 
Q 2853 3084 3261 2657 
Q 3669 2231 3669 1497 
Q 3669 778 3244 343 
Q 2819 -91 2113 -91 
Q 1303 -91 875 529 
Q 447 1150 447 2328 
Q 447 3434 972 4092 
Q 1497 4750 2381 4750 
Q 2619 4750 2861 4703 
Q 3103 4656 3366 4563 
z
" transform="scale(0.015625)"/>
       </defs>
       <use xlink:href="#DejaVuSans-30"/>
       <use xlink:href="#DejaVuSans-2e" transform="translate(63.623047 0)"/>
       <use xlink:href="#DejaVuSans-36" transform="translate(95.410156 0)"/>
      </g>
     </g>
    </g>
    <g id="xtick_5">
     <g id="line2d_5">
      <g>
       <use xlink:href="#m8a34535cda" x="324.013375" y="361.96" style="stroke: #000000; stroke-width: 0.8"/>
      </g>
     </g>
     <g id="text_5">
      <!-- 0.8 -->
      <g transform="translate(312.881188 379.597812) scale(0.14 -0.14)">
       <defs>
        <path id="DejaVuSans-38" d="M 2034 2216 
Q 1584 2216 1326 1975 
Q 1069 1734 1069 1313 
Q 1069 891 1326 650 
Q 1584 409 2034 409 
Q 2484 409 2743 651 
Q 3003 894 3003 1313 
Q 3003 1734 2745 1975 
Q 2488 2216 2034 2216 
z
M 1403 2484 
Q 997 2584 770 2862 
Q 544 3141 544 3541 
Q 544 4100 942 4425 
Q 1341 4750 2034 4750 
Q 2731 4750 3128 4425 
Q 3525 4100 3525 3541 
Q 3525 3141 3298 2862 
Q 3072 2584 2669 2484 
Q 3125 2378 3379 2068 
Q 3634 1759 3634 1313 
Q 3634 634 3220 271 
Q 2806 -91 2034 -91 
Q 1263 -91 848 271 
Q 434 634 434 1313 
Q 434 1759 690 2068 
Q 947 2378 1403 2484 
z
M 1172 3481 
Q 1172 3119 1398 2916 
Q 1625 2713 2034 2713 
Q 2441 2713 2670 2916 
Q 2900 3119 2900 3481 
Q 2900 3844 2670 4047 
Q 2441 4250 2034 4250 
Q 1625 4250 1398 4047 
Q 1172 3844 1172 3481 
z
" transform="scale(0.015625)"/>
       </defs>
       <use xlink:href="#DejaVuSans-30"/>
       <use xlink:href="#DejaVuSans-2e" transform="translate(63.623047 0)"/>
       <use xlink:href="#DejaVuSans-38" transform="translate(95.410156 0)"/>
      </g>
     </g>
    </g>
    <g id="xtick_6">
     <g id="line2d_6">
      <g>
       <use xlink:href="#m8a34535cda" x="391.029375" y="361.96" style="stroke: #000000; stroke-width: 0.8"/>
      </g>
     </g>
     <g id="text_6">
      <!-- 1.0 -->
      <g transform="translate(379.897187 379.597812) scale(0.14 -0.14)">
       <defs>
        <path id="DejaVuSans-31" d="M 794 531 
L 1825 531 
L 1825 4091 
L 703 3866 
L 703 4441 
L 1819 4666 
L 2450 4666 
L 2450 531 
L 3481 531 
L 3481 0 
L 794 0 
L 794 531 
z
" transform="scale(0.015625)"/>
       </defs>
       <use xlink:href="#DejaVuSans-31"/>
       <use xlink:href="#DejaVuSans-2e" transform="translate(63.623047 0)"/>
       <use xlink:href="#DejaVuSans-30" transform="translate(95.410156 0)"/>
      </g>
     </g>
    </g>
    <g id="text_7">
     <!-- FPR (False Positive Rate) -->
     <g transform="translate(125.374375 398.666875) scale(0.16 -0.16)">
      <defs>
       <path id="DejaVuSans-46" d="M 628 4666 
L 3309 4666 
L 3309 4134 
L 1259 4134 
L 1259 2759 
L 3109 2759 
L 3109 2228 
L 1259 2228 
L 1259 0 
L 628 0 
L 628 4666 
z
" transform="scale(0.015625)"/>
       <path id="DejaVuSans-50" d="M 1259 4147 
L 1259 2394 
L 2053 2394 
Q 2494 2394 2734 2622 
Q 2975 2850 2975 3272 
Q 2975 3691 2734 3919 
Q 2494 4147 2053 4147 
L 1259 4147 
z
M 628 4666 
L 2053 4666 
Q 2838 4666 3239 4311 
Q 3641 3956 3641 3272 
Q 3641 2581 3239 2228 
Q 2838 1875 2053 1875 
L 1259 1875 
L 1259 0 
L 628 0 
L 628 4666 
z
" transform="scale(0.015625)"/>
       <path id="DejaVuSans-52" d="M 2841 2188 
Q 3044 2119 3236 1894 
Q 3428 1669 3622 1275 
L 4263 0 
L 3584 0 
L 2988 1197 
Q 2756 1666 2539 1819 
Q 2322 1972 1947 1972 
L 1259 1972 
L 1259 0 
L 628 0 
L 628 4666 
L 2053 4666 
Q 2853 4666 3247 4331 
Q 3641 3997 3641 3322 
Q 3641 2881 3436 2590 
Q 3231 2300 2841 2188 
z
M 1259 4147 
L 1259 2491 
L 2053 2491 
Q 2509 2491 2742 2702 
Q 2975 2913 2975 3322 
Q 2975 3731 2742 3939 
Q 2509 4147 2053 4147 
L 1259 4147 
z
" transform="scale(0.015625)"/>
       <path id="DejaVuSans-20" transform="scale(0.015625)"/>
       <path id="DejaVuSans-28" d="M 1984 4856 
Q 1566 4138 1362 3434 
Q 1159 2731 1159 2009 
Q 1159 1288 1364 580 
Q 1569 -128 1984 -844 
L 1484 -844 
Q 1016 -109 783 600 
Q 550 1309 550 2009 
Q 550 2706 781 3412 
Q 1013 4119 1484 4856 
L 1984 4856 
z
" transform="scale(0.015625)"/>
       <path id="DejaVuSans-61" d="M 2194 1759 
Q 1497 1759 1228 1600 
Q 959 1441 959 1056 
Q 959 750 1161 570 
Q 1363 391 1709 391 
Q 2188 391 2477 730 
Q 2766 1069 2766 1631 
L 2766 1759 
L 2194 1759 
z
M 3341 1997 
L 3341 0 
L 2766 0 
L 2766 531 
Q 2569 213 2275 61 
Q 1981 -91 1556 -91 
Q 1019 -91 701 211 
Q 384 513 384 1019 
Q 384 1609 779 1909 
Q 1175 2209 1959 2209 
L 2766 2209 
L 2766 2266 
Q 2766 2663 2505 2880 
Q 2244 3097 1772 3097 
Q 1472 3097 1187 3025 
Q 903 2953 641 2809 
L 641 3341 
Q 956 3463 1253 3523 
Q 1550 3584 1831 3584 
Q 2591 3584 2966 3190 
Q 3341 2797 3341 1997 
z
" transform="scale(0.015625)"/>
       <path id="DejaVuSans-6c" d="M 603 4863 
L 1178 4863 
L 1178 0 
L 603 0 
L 603 4863 
z
" transform="scale(0.015625)"/>
       <path id="DejaVuSans-73" d="M 2834 3397 
L 2834 2853 
Q 2591 2978 2328 3040 
Q 2066 3103 1784 3103 
Q 1356 3103 1142 2972 
Q 928 2841 928 2578 
Q 928 2378 1081 2264 
Q 1234 2150 1697 2047 
L 1894 2003 
Q 2506 1872 2764 1633 
Q 3022 1394 3022 966 
Q 3022 478 2636 193 
Q 2250 -91 1575 -91 
Q 1294 -91 989 -36 
Q 684 19 347 128 
L 347 722 
Q 666 556 975 473 
Q 1284 391 1588 391 
Q 1994 391 2212 530 
Q 2431 669 2431 922 
Q 2431 1156 2273 1281 
Q 2116 1406 1581 1522 
L 1381 1569 
Q 847 1681 609 1914 
Q 372 2147 372 2553 
Q 372 3047 722 3315 
Q 1072 3584 1716 3584 
Q 2034 3584 2315 3537 
Q 2597 3491 2834 3397 
z
" transform="scale(0.015625)"/>
       <path id="DejaVuSans-65" d="M 3597 1894 
L 3597 1613 
L 953 1613 
Q 991 1019 1311 708 
Q 1631 397 2203 397 
Q 2534 397 2845 478 
Q 3156 559 3463 722 
L 3463 178 
Q 3153 47 2828 -22 
Q 2503 -91 2169 -91 
Q 1331 -91 842 396 
Q 353 884 353 1716 
Q 353 2575 817 3079 
Q 1281 3584 2069 3584 
Q 2775 3584 3186 3129 
Q 3597 2675 3597 1894 
z
M 3022 2063 
Q 3016 2534 2758 2815 
Q 2500 3097 2075 3097 
Q 1594 3097 1305 2825 
Q 1016 2553 972 2059 
L 3022 2063 
z
" transform="scale(0.015625)"/>
       <path id="DejaVuSans-6f" d="M 1959 3097 
Q 1497 3097 1228 2736 
Q 959 2375 959 1747 
Q 959 1119 1226 758 
Q 1494 397 1959 397 
Q 2419 397 2687 759 
Q 2956 1122 2956 1747 
Q 2956 2369 2687 2733 
Q 2419 3097 1959 3097 
z
M 1959 3584 
Q 2709 3584 3137 3096 
Q 3566 2609 3566 1747 
Q 3566 888 3137 398 
Q 2709 -91 1959 -91 
Q 1206 -91 779 398 
Q 353 888 353 1747 
Q 353 2609 779 3096 
Q 1206 3584 1959 3584 
z
" transform="scale(0.015625)"/>
       <path id="DejaVuSans-69" d="M 603 3500 
L 1178 3500 
L 1178 0 
L 603 0 
L 603 3500 
z
M 603 4863 
L 1178 4863 
L 1178 4134 
L 603 4134 
L 603 4863 
z
" transform="scale(0.015625)"/>
       <path id="DejaVuSans-74" d="M 1172 4494 
L 1172 3500 
L 2356 3500 
L 2356 3053 
L 1172 3053 
L 1172 1153 
Q 1172 725 1289 603 
Q 1406 481 1766 481 
L 2356 481 
L 2356 0 
L 1766 0 
Q 1100 0 847 248 
Q 594 497 594 1153 
L 594 3053 
L 172 3053 
L 172 3500 
L 594 3500 
L 594 4494 
L 1172 4494 
z
" transform="scale(0.015625)"/>
       <path id="DejaVuSans-76" d="M 191 3500 
L 800 3500 
L 1894 563 
L 2988 3500 
L 3597 3500 
L 2284 0 
L 1503 0 
L 191 3500 
z
" transform="scale(0.015625)"/>
       <path id="DejaVuSans-29" d="M 513 4856 
L 1013 4856 
Q 1481 4119 1714 3412 
Q 1947 2706 1947 2009 
Q 1947 1309 1714 600 
Q 1481 -109 1013 -844 
L 513 -844 
Q 928 -128 1133 580 
Q 1338 1288 1338 2009 
Q 1338 2731 1133 3434 
Q 928 4138 513 4856 
z
" transform="scale(0.015625)"/>
      </defs>
      <use xlink:href="#DejaVuSans-46"/>
      <use xlink:href="#DejaVuSans-50" transform="translate(57.519531 0)"/>
      <use xlink:href="#DejaVuSans-52" transform="translate(117.822266 0)"/>
      <use xlink:href="#DejaVuSans-20" transform="translate(187.304688 0)"/>
      <use xlink:href="#DejaVuSans-28" transform="translate(219.091797 0)"/>
      <use xlink:href="#DejaVuSans-46" transform="translate(258.105469 0)"/>
      <use xlink:href="#DejaVuSans-61" transform="translate(306.5 0)"/>
      <use xlink:href="#DejaVuSans-6c" transform="translate(367.779297 0)"/>
      <use xlink:href="#DejaVuSans-73" transform="translate(395.5625 0)"/>
      <use xlink:href="#DejaVuSans-65" transform="translate(447.662109 0)"/>
      <use xlink:href="#DejaVuSans-20" transform="translate(509.185547 0)"/>
      <use xlink:href="#DejaVuSans-50" transform="translate(540.972656 0)"/>
      <use xlink:href="#DejaVuSans-6f" transform="translate(597.650391 0)"/>
      <use xlink:href="#DejaVuSans-73" transform="translate(658.832031 0)"/>
      <use xlink:href="#DejaVuSans-69" transform="translate(710.931641 0)"/>
      <use xlink:href="#DejaVuSans-74" transform="translate(738.714844 0)"/>
      <use xlink:href="#DejaVuSans-69" transform="translate(777.923828 0)"/>
      <use xlink:href="#DejaVuSans-76" transform="translate(805.707031 0)"/>
      <use xlink:href="#DejaVuSans-65" transform="translate(864.886719 0)"/>
      <use xlink:href="#DejaVuSans-20" transform="translate(926.410156 0)"/>
      <use xlink:href="#DejaVuSans-52" transform="translate(958.197266 0)"/>
      <use xlink:href="#DejaVuSans-61" transform="translate(1025.429688 0)"/>
      <use xlink:href="#DejaVuSans-74" transform="translate(1086.708984 0)"/>
      <use xlink:href="#DejaVuSans-65" transform="translate(1125.917969 0)"/>
      <use xlink:href="#DejaVuSans-29" transform="translate(1187.441406 0)"/>
     </g>
    </g>
   </g>
   <g id="matplotlib.axis_2">
    <g id="ytick_1">
     <g id="line2d_7">
      <defs>
       <path id="m9c34bd294e" d="M 0 0 
L -3.5 0 
" style="stroke: #000000; stroke-width: 0.8"/>
      </defs>
      <g>
       <use xlink:href="#m9c34bd294e" x="55.949375" y="361.96" style="stroke: #000000; stroke-width: 0.8"/>
      </g>
     </g>
     <g id="text_8">
      <!-- 0.0 -->
      <g transform="translate(26.685 367.278906) scale(0.14 -0.14)">
       <use xlink:href="#DejaVuSans-30"/>
       <use xlink:href="#DejaVuSans-2e" transform="translate(63.623047 0)"/>
       <use xlink:href="#DejaVuSans-30" transform="translate(95.410156 0)"/>
      </g>
     </g>
    </g>
    <g id="ytick_2">
     <g id="line2d_8">
      <g>
       <use xlink:href="#m9c34bd294e" x="55.949375" y="294.944" style="stroke: #000000; stroke-width: 0.8"/>
      </g>
     </g>
     <g id="text_9">
      <!-- 0.2 -->
      <g transform="translate(26.685 300.262906) scale(0.14 -0.14)">
       <use xlink:href="#DejaVuSans-30"/>
       <use xlink:href="#DejaVuSans-2e" transform="translate(63.623047 0)"/>
       <use xlink:href="#DejaVuSans-32" transform="translate(95.410156 0)"/>
      </g>
     </g>
    </g>
    <g id="ytick_3">
     <g id="line2d_9">
      <g>
       <use xlink:href="#m9c34bd294e" x="55.949375" y="227.928" style="stroke: #000000; stroke-width: 0.8"/>
      </g>
     </g>
     <g id="text_10">
      <!-- 0.4 -->
      <g transform="translate(26.685 233.246906) scale(0.14 -0.14)">
       <use xlink:href="#DejaVuSans-30"/>
       <use xlink:href="#DejaVuSans-2e" transform="translate(63.623047 0)"/>
       <use xlink:href="#DejaVuSans-34" transform="translate(95.410156 0)"/>
      </g>
     </g>
    </g>
    <g id="ytick_4">
     <g id="line2d_10">
      <g>
       <use xlink:href="#m9c34bd294e" x="55.949375" y="160.912" style="stroke: #000000; stroke-width: 0.8"/>
      </g>
     </g>
     <g id="text_11">
      <!-- 0.6 -->
      <g transform="translate(26.685 166.230906) scale(0.14 -0.14)">
       <use xlink:href="#DejaVuSans-30"/>
       <use xlink:href="#DejaVuSans-2e" transform="translate(63.623047 0)"/>
       <use xlink:href="#DejaVuSans-36" transform="translate(95.410156 0)"/>
      </g>
     </g>
    </g>
    <g id="ytick_5">
     <g id="line2d_11">
      <g>
       <use xlink:href="#m9c34bd294e" x="55.949375" y="93.896" style="stroke: #000000; stroke-width: 0.8"/>
      </g>
     </g>
     <g id="text_12">
      <!-- 0.8 -->
      <g transform="translate(26.685 99.214906) scale(0.14 -0.14)">
       <use xlink:href="#DejaVuSans-30"/>
       <use xlink:href="#DejaVuSans-2e" transform="translate(63.623047 0)"/>
       <use xlink:href="#DejaVuSans-38" transform="translate(95.410156 0)"/>
      </g>
     </g>
    </g>
    <g id="ytick_6">
     <g id="line2d_12">
      <g>
       <use xlink:href="#m9c34bd294e" x="55.949375" y="26.88" style="stroke: #000000; stroke-width: 0.8"/>
      </g>
     </g>
     <g id="text_13">
      <!-- 1.0 -->
      <g transform="translate(26.685 32.198906) scale(0.14 -0.14)">
       <use xlink:href="#DejaVuSans-31"/>
       <use xlink:href="#DejaVuSans-2e" transform="translate(63.623047 0)"/>
       <use xlink:href="#DejaVuSans-30" transform="translate(95.410156 0)"/>
      </g>
     </g>
    </g>
    <g id="text_14">
     <!-- TPR (True Positive Rate) -->
     <g transform="translate(19.3575 289.72125) rotate(-90) scale(0.16 -0.16)">
      <defs>
       <path id="DejaVuSans-54" d="M -19 4666 
L 3928 4666 
L 3928 4134 
L 2272 4134 
L 2272 0 
L 1638 0 
L 1638 4134 
L -19 4134 
L -19 4666 
z
" transform="scale(0.015625)"/>
       <path id="DejaVuSans-72" d="M 2631 2963 
Q 2534 3019 2420 3045 
Q 2306 3072 2169 3072 
Q 1681 3072 1420 2755 
Q 1159 2438 1159 1844 
L 1159 0 
L 581 0 
L 581 3500 
L 1159 3500 
L 1159 2956 
Q 1341 3275 1631 3429 
Q 1922 3584 2338 3584 
Q 2397 3584 2469 3576 
Q 2541 3569 2628 3553 
L 2631 2963 
z
" transform="scale(0.015625)"/>
       <path id="DejaVuSans-75" d="M 544 1381 
L 544 3500 
L 1119 3500 
L 1119 1403 
Q 1119 906 1312 657 
Q 1506 409 1894 409 
Q 2359 409 2629 706 
Q 2900 1003 2900 1516 
L 2900 3500 
L 3475 3500 
L 3475 0 
L 2900 0 
L 2900 538 
Q 2691 219 2414 64 
Q 2138 -91 1772 -91 
Q 1169 -91 856 284 
Q 544 659 544 1381 
z
M 1991 3584 
L 1991 3584 
z
" transform="scale(0.015625)"/>
      </defs>
      <use xlink:href="#DejaVuSans-54"/>
      <use xlink:href="#DejaVuSans-50" transform="translate(61.083984 0)"/>
      <use xlink:href="#DejaVuSans-52" transform="translate(121.386719 0)"/>
      <use xlink:href="#DejaVuSans-20" transform="translate(190.869141 0)"/>
      <use xlink:href="#DejaVuSans-28" transform="translate(222.65625 0)"/>
      <use xlink:href="#DejaVuSans-54" transform="translate(261.669922 0)"/>
      <use xlink:href="#DejaVuSans-72" transform="translate(308.003906 0)"/>
      <use xlink:href="#DejaVuSans-75" transform="translate(349.117188 0)"/>
      <use xlink:href="#DejaVuSans-65" transform="translate(412.496094 0)"/>
      <use xlink:href="#DejaVuSans-20" transform="translate(474.019531 0)"/>
      <use xlink:href="#DejaVuSans-50" transform="translate(505.806641 0)"/>
      <use xlink:href="#DejaVuSans-6f" transform="translate(562.484375 0)"/>
      <use xlink:href="#DejaVuSans-73" transform="translate(623.666016 0)"/>
      <use xlink:href="#DejaVuSans-69" transform="translate(675.765625 0)"/>
      <use xlink:href="#DejaVuSans-74" transform="translate(703.548828 0)"/>
      <use xlink:href="#DejaVuSans-69" transform="translate(742.757812 0)"/>
      <use xlink:href="#DejaVuSans-76" transform="translate(770.541016 0)"/>
      <use xlink:href="#DejaVuSans-65" transform="translate(829.720703 0)"/>
      <use xlink:href="#DejaVuSans-20" transform="translate(891.244141 0)"/>
      <use xlink:href="#DejaVuSans-52" transform="translate(923.03125 0)"/>
      <use xlink:href="#DejaVuSans-61" transform="translate(990.263672 0)"/>
      <use xlink:href="#DejaVuSans-74" transform="translate(1051.542969 0)"/>
      <use xlink:href="#DejaVuSans-65" transform="translate(1090.751953 0)"/>
      <use xlink:href="#DejaVuSans-29" transform="translate(1152.275391 0)"/>
     </g>
    </g>
   </g>
   <g id="QuadContourSet_2">
    <path d="M 97.733491 60.388 
L 391.029375 60.388 
L 391.029375 60.388 
" clip-path="url(#p0bfd768167)" style="fill: none; stroke: #ff0000; stroke-width: 2"/>
   </g>
   <g id="patch_3">
    <path d="M 55.949375 361.96 
L 55.949375 26.88 
" style="fill: none; stroke: #000000; stroke-width: 0.8; stroke-linejoin: miter; stroke-linecap: square"/>
   </g>
   <g id="patch_4">
    <path d="M 391.029375 361.96 
L 391.029375 26.88 
" style="fill: none; stroke: #000000; stroke-width: 0.8; stroke-linejoin: miter; stroke-linecap: square"/>
   </g>
   <g id="patch_5">
    <path d="M 55.949375 361.96 
L 391.029375 361.96 
" style="fill: none; stroke: #000000; stroke-width: 0.8; stroke-linejoin: miter; stroke-linecap: square"/>
   </g>
   <g id="patch_6">
    <path d="M 55.949375 26.88 
L 391.029375 26.88 
" style="fill: none; stroke: #000000; stroke-width: 0.8; stroke-linejoin: miter; stroke-linecap: square"/>
   </g>
   <g id="text_15">
    <!-- $\eta$ or $\mathrm{ipv}_{\mathrm{ref}}$ -->
    <g transform="translate(180.289375 20.88) scale(0.18 -0.18)">
     <defs>
      <path id="DejaVuSans-Oblique-3b7" d="M 3703 2113 
L 3034 -1331 
L 2459 -1331 
L 3125 2094 
Q 3222 2591 3075 2838 
Q 2931 3084 2544 3084 
Q 2078 3084 1750 2788 
Q 1425 2491 1325 1978 
L 941 0 
L 363 0 
L 1044 3500 
L 1622 3500 
L 1516 2956 
Q 1781 3272 2094 3428 
Q 2403 3584 2769 3584 
Q 3372 3584 3609 3213 
Q 3844 2838 3703 2113 
z
" transform="scale(0.015625)"/>
      <path id="DejaVuSans-70" d="M 1159 525 
L 1159 -1331 
L 581 -1331 
L 581 3500 
L 1159 3500 
L 1159 2969 
Q 1341 3281 1617 3432 
Q 1894 3584 2278 3584 
Q 2916 3584 3314 3078 
Q 3713 2572 3713 1747 
Q 3713 922 3314 415 
Q 2916 -91 2278 -91 
Q 1894 -91 1617 61 
Q 1341 213 1159 525 
z
M 3116 1747 
Q 3116 2381 2855 2742 
Q 2594 3103 2138 3103 
Q 1681 3103 1420 2742 
Q 1159 2381 1159 1747 
Q 1159 1113 1420 752 
Q 1681 391 2138 391 
Q 2594 391 2855 752 
Q 3116 1113 3116 1747 
z
" transform="scale(0.015625)"/>
      <path id="DejaVuSans-66" d="M 2375 4863 
L 2375 4384 
L 1825 4384 
Q 1516 4384 1395 4259 
Q 1275 4134 1275 3809 
L 1275 3500 
L 2222 3500 
L 2222 3053 
L 1275 3053 
L 1275 0 
L 697 0 
L 697 3053 
L 147 3053 
L 147 3500 
L 697 3500 
L 697 3744 
Q 697 4328 969 4595 
Q 1241 4863 1831 4863 
L 2375 4863 
z
" transform="scale(0.015625)"/>
     </defs>
     <use xlink:href="#DejaVuSans-Oblique-3b7" transform="translate(0 0.015625)"/>
     <use xlink:href="#DejaVuSans-20" transform="translate(63.378906 0.015625)"/>
     <use xlink:href="#DejaVuSans-6f" transform="translate(95.166016 0.015625)"/>
     <use xlink:href="#DejaVuSans-72" transform="translate(156.347656 0.015625)"/>
     <use xlink:href="#DejaVuSans-20" transform="translate(197.460938 0.015625)"/>
     <use xlink:href="#DejaVuSans-69" transform="translate(229.248047 0.015625)"/>
     <use xlink:href="#DejaVuSans-70" transform="translate(257.03125 0.015625)"/>
     <use xlink:href="#DejaVuSans-76" transform="translate(320.507812 0.015625)"/>
     <use xlink:href="#DejaVuSans-72" transform="translate(380.644531 -16.390625) scale(0.7)"/>
     <use xlink:href="#DejaVuSans-65" transform="translate(409.423828 -16.390625) scale(0.7)"/>
     <use xlink:href="#DejaVuSans-66" transform="translate(452.490234 -16.390625) scale(0.7)"/>
    </g>
   </g>
   <g id="text_16">
    <g clip-path="url(#p0bfd768167)">
     <!-- 0.900 -->
     <g style="fill: #ff0000" transform="translate(54.004008 64.251125) scale(0.14 -0.14)">
      <defs>
       <path id="DejaVuSans-39" d="M 703 97 
L 703 672 
Q 941 559 1184 500 
Q 1428 441 1663 441 
Q 2288 441 2617 861 
Q 2947 1281 2994 2138 
Q 2813 1869 2534 1725 
Q 2256 1581 1919 1581 
Q 1219 1581 811 2004 
Q 403 2428 403 3163 
Q 403 3881 828 4315 
Q 1253 4750 1959 4750 
Q 2769 4750 3195 4129 
Q 3622 3509 3622 2328 
Q 3622 1225 3098 567 
Q 2575 -91 1691 -91 
Q 1453 -91 1209 -44 
Q 966 3 703 97 
z
M 1959 2075 
Q 2384 2075 2632 2365 
Q 2881 2656 2881 3163 
Q 2881 3666 2632 3958 
Q 2384 4250 1959 4250 
Q 1534 4250 1286 3958 
Q 1038 3666 1038 3163 
Q 1038 2656 1286 2365 
Q 1534 2075 1959 2075 
z
" transform="scale(0.015625)"/>
      </defs>
      <use xlink:href="#DejaVuSans-30"/>
      <use xlink:href="#DejaVuSans-2e" transform="translate(63.623047 0)"/>
      <use xlink:href="#DejaVuSans-39" transform="translate(95.410156 0)"/>
      <use xlink:href="#DejaVuSans-30" transform="translate(159.033203 0)"/>
      <use xlink:href="#DejaVuSans-30" transform="translate(222.65625 0)"/>
     </g>
    </g>
   </g>
  </g>
 </g>
 <defs>
  <clipPath id="p0bfd768167">
   <rect x="55.949375" y="26.88" width="335.08" height="335.08"/>
  </clipPath>
 </defs>
</svg>
