<?xml version="1.0" encoding="utf-8" standalone="no"?>
<!DOCTYPE svg PUBLIC "-//W3C//DTD SVG 1.1//EN"
  "http://www.w3.org/Graphics/SVG/1.1/DTD/svg11.dtd">
<svg xmlns:xlink="http://www.w3.org/1999/xlink" width="409.361562pt" height="409.194375pt" viewBox="0 0 409.361562 409.194375" xmlns="http://www.w3.org/2000/svg" version="1.1">
 <metadata>
  <rdf:RDF xmlns:dc="http://purl.org/dc/elements/1.1/" xmlns:cc="http://creativecommons.org/ns#" xmlns:rdf="http://www.w3.org/1999/02/22-rdf-syntax-ns#">
   <cc:Work>
    <dc:type rdf:resource="http://purl.org/dc/dcmitype/StillImage"/>
    <dc:date>2026-01-18T14:27:50.218674</dc:date>
    <dc:format>image/svg+xml</dc:format>
    <dc:creator>
     <cc:Agent>
      <dc:title>Matplotlib v3.10.8, https://matplotlib.org/</dc:title>
     </cc:Agent>
    </dc:creator>
   </cc:Work>
  </rdf:RDF>
 </metadata>
 <defs>
  <style type="text/css">*{stroke-linejoin: round; stroke-linecap: butt}</style>
 </defs>
 <g id="figure_1">
  <g id="patch_1">
   <path d="M 0 409.194375 
L 409.361562 409.194375 
L 409.361562 0 
L 0 0 
z
" style="fill: #ffffff"/>
  </g>
  <g id="axes_1">
   <g id="patch_2">
    <path d="M 55.949375 361.96 
L 391.029375 361.96 
L 391.029375 26.88 
L 55.949375 26.88 
z
" style="fill: #ffffff"/>
   </g>
   <g id="QuadContourSet_1">
    <path d="M 56.619535 361.96 
L 57.289695 361.96 
L 57.959855 361.96 
L 58.630015 361.96 
L 59.300175 361.96 
L 59.970335 361.96 
L 60.640495 361.96 
L 61.310655 361.96 
L 61.980815 361.96 
L 62.650975 361.96 
L 63.321135 361.96 
L 63.991295 361.96 
L 64.661455 361.96 
L 65.331615 361.96 
L 66.001775 361.96 
L 66.671935 361.96 
L 67.342095 361.96 
L 68.012255 361.96 
L 68.682415 361.96 
L 69.352575 361.96 
L 70.022735 361.96 
L 70.692895 361.96 
L 71.363055 361.96 
L 72.033215 361.96 
L 72.703375 361.96 
L 73.373535 361.96 
L 74.043695 361.96 
L 74.713855 361.96 
L 75.384015 361.96 
L 76.054175 361.96 
L 76.724335 361.96 
L 77.394495 361.96 
L 78.064655 361.96 
L 78.734815 361.96 
L 79.404975 361.96 
L 80.075135 361.96 
L 80.745295 361.96 
L 81.415455 361.96 
L 82.085615 361.96 
L 82.755775 361.96 
L 83.425935 361.96 
L 84.096095 361.96 
L 84.766255 361.96 
L 85.436415 361.96 
L 86.106575 361.96 
L 86.776735 361.96 
L 87.446895 361.96 
L 88.117055 361.96 
L 88.787215 361.96 
L 89.457375 361.96 
L 90.127535 361.96 
L 90.797695 361.96 
L 91.467855 361.96 
L 92.138015 361.96 
L 92.808175 361.96 
L 93.478335 361.96 
L 94.148495 361.96 
L 94.818655 361.96 
L 95.488815 361.96 
L 96.158975 361.96 
L 96.829135 361.96 
L 97.499295 361.96 
L 98.169455 361.96 
L 98.839615 361.96 
L 99.509775 361.96 
L 100.179935 361.96 
L 100.850095 361.96 
L 101.520255 361.96 
L 102.190415 361.96 
L 102.860575 361.96 
L 103.530735 361.96 
L 104.200895 361.96 
L 104.871055 361.96 
L 105.541215 361.96 
L 106.211375 361.96 
L 106.881535 361.96 
L 107.551695 361.96 
L 108.221855 361.96 
L 108.892015 361.96 
L 109.562175 361.96 
L 110.232335 361.96 
L 110.902495 361.96 
L 111.572655 361.96 
L 112.242815 361.96 
L 112.912975 361.96 
L 113.583135 361.96 
L 114.253295 361.96 
L 114.923455 361.96 
L 115.593615 361.96 
L 116.263775 361.96 
L 116.933935 361.96 
L 117.604095 361.96 
L 118.274255 361.96 
L 118.944415 361.96 
L 119.614575 361.96 
L 120.284735 361.96 
L 120.954895 361.96 
L 121.625055 361.96 
L 122.295215 361.96 
L 122.965375 361.96 
L 123.635535 361.96 
L 124.305695 361.96 
L 124.975855 361.96 
L 125.646015 361.96 
L 126.316175 361.96 
L 126.986335 361.96 
L 127.656495 361.96 
L 128.326655 361.96 
L 128.996815 361.96 
L 129.666975 361.96 
L 130.337135 361.96 
L 131.007295 361.96 
L 131.677455 361.96 
L 132.347615 361.96 
L 133.017775 361.96 
L 133.687935 361.96 
L 134.358095 361.96 
L 135.028255 361.96 
L 135.698415 361.96 
L 136.368575 361.96 
L 137.038735 361.96 
L 137.708895 361.96 
L 138.379055 361.96 
L 139.049215 361.96 
L 139.719375 361.96 
L 140.389535 361.96 
L 141.059695 361.96 
L 141.729855 361.96 
L 142.400015 361.96 
L 143.070175 361.96 
L 143.740335 361.96 
L 144.410495 361.96 
L 145.080655 361.96 
L 145.750815 361.96 
L 146.420975 361.96 
L 147.091135 361.96 
L 147.761295 361.96 
L 148.431455 361.96 
L 149.101615 361.96 
L 149.771775 361.96 
L 150.441935 361.96 
L 151.112095 361.96 
L 151.782255 361.96 
L 152.452415 361.96 
L 153.122575 361.96 
L 153.792735 361.96 
L 154.462895 361.96 
L 155.133055 361.96 
L 155.803215 361.96 
L 156.473375 361.96 
L 157.143535 361.96 
L 157.813695 361.96 
L 158.483855 361.96 
L 159.154015 361.96 
L 159.824175 361.96 
L 160.494335 361.96 
L 161.164495 361.96 
L 161.834655 361.96 
L 162.504815 361.96 
L 163.174975 361.96 
L 163.845135 361.96 
L 164.515295 361.96 
L 165.185455 361.96 
L 165.855615 361.96 
L 166.525775 361.96 
L 167.195935 361.96 
L 167.866095 361.96 
L 168.536255 361.96 
L 169.206415 361.96 
L 169.876575 361.96 
L 170.546735 361.96 
L 171.216895 361.96 
L 171.887055 361.96 
L 172.557215 361.96 
L 173.227375 361.96 
L 173.897535 361.96 
L 174.567695 361.96 
L 175.237855 361.96 
L 175.908015 361.96 
L 176.578175 361.96 
L 177.248335 361.96 
L 177.918495 361.96 
L 178.588655 361.96 
L 179.258815 361.96 
L 179.928975 361.96 
L 180.599135 361.96 
L 181.269295 361.96 
L 181.939455 361.96 
L 182.609615 361.96 
L 183.279775 361.96 
L 183.949935 361.96 
L 184.620095 361.96 
L 185.290255 361.96 
L 185.960415 361.96 
L 186.630575 361.96 
L 187.300735 361.96 
L 187.970895 361.96 
L 188.641055 361.96 
L 189.311215 361.96 
L 189.981375 361.96 
L 190.651535 361.96 
L 191.321695 361.96 
L 191.991855 361.96 
L 192.662015 361.96 
L 193.332175 361.96 
L 194.002335 361.96 
L 194.672495 361.96 
L 195.342655 361.96 
L 196.012815 361.96 
L 196.682975 361.96 
L 197.353135 361.96 
L 198.023295 361.96 
L 198.693455 361.96 
L 199.363615 361.96 
L 200.033775 361.96 
L 200.703935 361.96 
L 201.374095 361.96 
L 202.044255 361.96 
L 202.714415 361.96 
L 203.384575 361.96 
L 204.054735 361.96 
L 204.724895 361.96 
L 205.395055 361.96 
L 206.065215 361.96 
L 206.735375 361.96 
L 207.405535 361.96 
L 208.075695 361.96 
L 208.745855 361.96 
L 209.416015 361.96 
L 210.086175 361.96 
L 210.756335 361.96 
L 211.426495 361.96 
L 212.096655 361.96 
L 212.766815 361.96 
L 213.436975 361.96 
L 214.107135 361.96 
L 214.777295 361.96 
L 215.447455 361.96 
L 216.117615 361.96 
L 216.787775 361.96 
L 217.457935 361.96 
L 218.128095 361.96 
L 218.798255 361.96 
L 219.468415 361.96 
L 220.138575 361.96 
L 220.808735 361.96 
L 221.478895 361.96 
L 222.149055 361.96 
L 222.819215 361.96 
L 223.489375 361.96 
L 224.159535 361.96 
L 224.829695 361.96 
L 225.499855 361.96 
L 226.170015 361.96 
L 226.840175 361.96 
L 227.510335 361.96 
L 228.180495 361.96 
L 228.850655 361.96 
L 229.520815 361.96 
L 230.190975 361.96 
L 230.861135 361.96 
L 231.531295 361.96 
L 232.201455 361.96 
L 232.871615 361.96 
L 233.541775 361.96 
L 234.211935 361.96 
L 234.882095 361.96 
L 235.552255 361.96 
L 236.222415 361.96 
L 236.892575 361.96 
L 237.562735 361.96 
L 238.232895 361.96 
L 238.903055 361.96 
L 239.573215 361.96 
L 240.243375 361.96 
L 240.913535 361.96 
L 241.583695 361.96 
L 242.253855 361.96 
L 242.924015 361.96 
L 243.594175 361.96 
L 244.264335 361.96 
L 244.934495 361.96 
L 245.604655 361.96 
L 246.274815 361.96 
L 246.944975 361.96 
L 247.615135 361.96 
L 248.285295 361.96 
L 248.955455 361.96 
L 249.625615 361.96 
L 250.295775 361.96 
L 250.965935 361.96 
L 251.636095 361.96 
L 252.306255 361.96 
L 252.976415 361.96 
L 253.646575 361.96 
L 254.316735 361.96 
L 254.986895 361.96 
L 255.657055 361.96 
L 256.327215 361.96 
L 256.997375 361.96 
L 257.667535 361.96 
L 258.337695 361.96 
L 259.007855 361.96 
L 259.678015 361.96 
L 260.348175 361.96 
L 261.018335 361.96 
L 261.688495 361.96 
L 262.358655 361.96 
L 263.028815 361.96 
L 263.698975 361.96 
L 264.369135 361.96 
L 265.039295 361.96 
L 265.709455 361.96 
L 266.379615 361.96 
L 267.049775 361.96 
L 267.719935 361.96 
L 268.390095 361.96 
L 269.060255 361.96 
L 269.730415 361.96 
L 270.400575 361.96 
L 271.070735 361.96 
L 271.740895 361.96 
L 272.411055 361.96 
L 273.081215 361.96 
L 273.751375 361.96 
L 274.421535 361.96 
L 275.091695 361.96 
L 275.761855 361.96 
L 276.432015 361.96 
L 277.102175 361.96 
L 277.772335 361.96 
L 278.442495 361.96 
L 279.112655 361.96 
L 279.782815 361.96 
L 280.452975 361.96 
L 281.123135 361.96 
L 281.793295 361.96 
L 282.463455 361.96 
L 283.133615 361.96 
L 283.803775 361.96 
L 284.473935 361.96 
L 285.144095 361.96 
L 285.814255 361.96 
L 286.484415 361.96 
L 287.154575 361.96 
L 287.824735 361.96 
L 288.494895 361.96 
L 289.165055 361.96 
L 289.835215 361.96 
L 290.505375 361.96 
L 291.175535 361.96 
L 291.845695 361.96 
L 292.515855 361.96 
L 293.186015 361.96 
L 293.856175 361.96 
L 294.526335 361.96 
L 295.196495 361.96 
L 295.866655 361.96 
L 296.536815 361.96 
L 297.206975 361.96 
L 297.877135 361.96 
L 298.547295 361.96 
L 299.217455 361.96 
L 299.887615 361.96 
L 300.557775 361.96 
L 301.227935 361.96 
L 301.898095 361.96 
L 302.568255 361.96 
L 303.238415 361.96 
L 303.908575 361.96 
L 304.578735 361.96 
L 305.248895 361.96 
L 305.919055 361.96 
L 306.589215 361.96 
L 307.259375 361.96 
L 307.929535 361.96 
L 308.599695 361.96 
L 309.269855 361.96 
L 309.940015 361.96 
L 310.610175 361.96 
L 311.280335 361.96 
L 311.950495 361.96 
L 312.620655 361.96 
L 313.290815 361.96 
L 313.960975 361.96 
L 314.631135 361.96 
L 315.301295 361.96 
L 315.971455 361.96 
L 316.641615 361.96 
L 317.311775 361.96 
L 317.981935 361.96 
L 318.652095 361.96 
L 319.322255 361.96 
L 319.992415 361.96 
L 320.662575 361.96 
L 321.332735 361.96 
L 322.002895 361.96 
L 322.673055 361.96 
L 323.343215 361.96 
L 324.013375 361.96 
L 324.683535 361.96 
L 325.353695 361.96 
L 326.023855 361.96 
L 326.694015 361.96 
L 327.364175 361.96 
L 328.034335 361.96 
L 328.704495 361.96 
L 329.374655 361.96 
L 330.044815 361.96 
L 330.714975 361.96 
L 331.385135 361.96 
L 332.055295 361.96 
L 332.725455 361.96 
L 333.395615 361.96 
L 334.065775 361.96 
L 334.735935 361.96 
L 335.406095 361.96 
L 336.076255 361.96 
L 336.746415 361.96 
L 337.416575 361.96 
L 338.086735 361.96 
L 338.756895 361.96 
L 339.427055 361.96 
L 340.097215 361.96 
L 340.767375 361.96 
L 341.437535 361.96 
L 342.107695 361.96 
L 342.777855 361.96 
L 343.448015 361.96 
L 344.118175 361.96 
L 344.788335 361.96 
L 345.458495 361.96 
L 346.128655 361.96 
L 346.798815 361.96 
L 347.468975 361.96 
L 348.139135 361.96 
L 348.809295 361.96 
L 349.479455 361.96 
L 350.149615 361.96 
L 350.819775 361.96 
L 351.489935 361.96 
L 352.160095 361.96 
L 352.830255 361.96 
L 353.500415 361.96 
L 354.170575 361.96 
L 354.840735 361.96 
L 355.510895 361.96 
L 356.181055 361.96 
L 356.851215 361.96 
L 357.521375 361.96 
L 358.191535 361.96 
L 358.861695 361.96 
L 359.531855 361.96 
L 360.202015 361.96 
L 360.872175 361.96 
L 361.542335 361.96 
L 362.212495 361.96 
L 362.882655 361.96 
L 363.552815 361.96 
L 364.222975 361.96 
L 364.893135 361.96 
L 365.563295 361.96 
L 366.233455 361.96 
L 366.903615 361.96 
L 367.573775 361.96 
L 368.243935 361.96 
L 368.914095 361.96 
L 369.584255 361.96 
L 370.254415 361.96 
L 370.924575 361.96 
L 371.594735 361.96 
L 372.264895 361.96 
L 372.935055 361.96 
L 373.605215 361.96 
L 374.275375 361.96 
L 374.945535 361.96 
L 375.615695 361.96 
L 376.285855 361.96 
L 376.956015 361.96 
L 377.626175 361.96 
L 378.296335 361.96 
L 378.966495 361.96 
L 379.636655 361.96 
L 380.306815 361.96 
L 380.976975 361.96 
L 381.647135 361.96 
L 382.317295 361.96 
L 382.987455 361.96 
L 383.657615 361.96 
L 384.327775 361.96 
L 384.997935 361.96 
L 385.668095 361.96 
L 386.338255 361.96 
L 387.008415 361.96 
L 387.678575 361.96 
L 388.348735 361.96 
L 389.018895 361.96 
L 389.689055 361.96 
L 390.359215 361.96 
L 391.029375 361.96 
L 391.029375 361.28984 
L 391.029375 360.61968 
L 391.029375 359.94952 
L 391.029375 359.27936 
L 391.029375 358.6092 
L 391.029375 357.93904 
L 391.029375 357.26888 
L 391.029375 356.59872 
L 391.029375 355.92856 
L 391.029375 355.2584 
L 391.029375 354.58824 
L 391.029375 353.91808 
L 391.029375 353.24792 
L 391.029375 352.57776 
L 391.029375 351.9076 
L 391.029375 351.23744 
L 391.029375 350.56728 
L 391.029375 349.89712 
L 391.029375 349.22696 
L 391.029375 348.5568 
L 391.029375 347.88664 
L 391.029375 347.21648 
L 391.029375 346.54632 
L 391.029375 345.87616 
L 391.029375 345.206 
L 391.029375 344.53584 
L 391.029375 343.86568 
L 391.029375 343.19552 
L 391.029375 342.52536 
L 391.029375 341.8552 
L 391.029375 341.18504 
L 391.029375 340.51488 
L 391.029375 339.84472 
L 391.029375 339.17456 
L 391.029375 338.5044 
L 391.029375 337.83424 
L 391.029375 337.16408 
L 391.029375 336.49392 
L 391.029375 335.82376 
L 391.029375 335.1536 
L 391.029375 334.48344 
L 391.029375 333.81328 
L 391.029375 333.14312 
L 391.029375 332.47296 
L 391.029375 331.8028 
L 391.029375 331.13264 
L 391.029375 330.46248 
L 391.029375 329.79232 
L 391.029375 329.12216 
L 391.029375 328.452 
L 391.029375 327.78184 
L 391.029375 327.11168 
L 391.029375 326.44152 
L 391.029375 325.77136 
L 391.029375 325.1012 
L 391.029375 324.43104 
L 391.029375 323.76088 
L 391.029375 323.09072 
L 391.029375 322.42056 
L 391.029375 321.7504 
L 391.029375 321.08024 
L 391.029375 320.41008 
L 391.029375 319.73992 
L 391.029375 319.06976 
L 391.029375 318.3996 
L 391.029375 317.72944 
L 391.029375 317.05928 
L 391.029375 316.38912 
L 391.029375 315.71896 
L 391.029375 315.0488 
L 391.029375 314.37864 
L 391.029375 313.70848 
L 391.029375 313.03832 
L 391.029375 312.36816 
L 391.029375 311.698 
L 391.029375 311.02784 
L 391.029375 310.35768 
L 391.029375 309.68752 
L 391.029375 309.01736 
L 391.029375 308.3472 
L 391.029375 307.67704 
L 391.029375 307.00688 
L 391.029375 306.33672 
L 391.029375 305.66656 
L 391.029375 304.9964 
L 391.029375 304.32624 
L 391.029375 303.65608 
L 391.029375 302.98592 
L 391.029375 302.31576 
L 391.029375 301.6456 
L 391.029375 300.97544 
L 391.029375 300.30528 
L 391.029375 299.63512 
L 391.029375 298.96496 
L 391.029375 298.2948 
L 391.029375 297.62464 
L 391.029375 296.95448 
L 391.029375 296.28432 
L 391.029375 295.61416 
L 391.029375 294.944 
L 391.029375 294.27384 
L 391.029375 293.60368 
L 391.029375 292.93352 
L 391.029375 292.26336 
L 391.029375 291.5932 
L 391.029375 290.92304 
L 391.029375 290.25288 
L 391.029375 289.58272 
L 391.029375 288.91256 
L 391.029375 288.2424 
L 391.029375 287.57224 
L 391.029375 286.90208 
L 391.029375 286.23192 
L 391.029375 285.56176 
L 391.029375 284.8916 
L 391.029375 284.22144 
L 391.029375 283.55128 
L 391.029375 282.88112 
L 391.029375 282.21096 
L 391.029375 281.5408 
L 391.029375 280.87064 
L 391.029375 280.20048 
L 391.029375 279.53032 
L 391.029375 278.86016 
L 391.029375 278.19 
L 391.029375 277.51984 
L 391.029375 276.84968 
L 391.029375 276.17952 
L 391.029375 275.50936 
L 391.029375 274.8392 
L 391.029375 274.16904 
L 391.029375 273.49888 
L 391.029375 272.82872 
L 391.029375 272.15856 
L 391.029375 271.4884 
L 391.029375 270.81824 
L 391.029375 270.14808 
L 391.029375 269.47792 
L 391.029375 268.80776 
L 391.029375 268.1376 
L 391.029375 267.46744 
L 391.029375 266.79728 
L 391.029375 266.12712 
L 391.029375 265.45696 
L 391.029375 264.7868 
L 391.029375 264.11664 
L 391.029375 263.44648 
L 391.029375 262.77632 
L 391.029375 262.10616 
L 391.029375 261.436 
L 391.029375 260.76584 
L 391.029375 260.09568 
L 391.029375 259.42552 
L 391.029375 258.75536 
L 391.029375 258.0852 
L 391.029375 257.41504 
L 391.029375 256.74488 
L 391.029375 256.07472 
L 391.029375 255.40456 
L 391.029375 254.7344 
L 391.029375 254.06424 
L 391.029375 253.39408 
L 391.029375 252.72392 
L 391.029375 252.05376 
L 391.029375 251.3836 
L 391.029375 250.71344 
L 391.029375 250.04328 
L 391.029375 249.37312 
L 391.029375 248.70296 
L 391.029375 248.0328 
L 391.029375 247.36264 
L 391.029375 246.69248 
L 391.029375 246.02232 
L 391.029375 245.35216 
L 391.029375 244.682 
L 391.029375 244.01184 
L 391.029375 243.34168 
L 391.029375 242.67152 
L 391.029375 242.00136 
L 391.029375 241.3312 
L 391.029375 240.66104 
L 391.029375 239.99088 
L 391.029375 239.32072 
L 391.029375 238.65056 
L 391.029375 237.9804 
L 391.029375 237.31024 
L 391.029375 236.64008 
L 391.029375 235.96992 
L 391.029375 235.29976 
L 391.029375 234.6296 
L 391.029375 233.95944 
L 391.029375 233.28928 
L 391.029375 232.61912 
L 391.029375 231.94896 
L 391.029375 231.2788 
L 391.029375 230.60864 
L 391.029375 229.93848 
L 391.029375 229.26832 
L 391.029375 228.59816 
L 391.029375 227.928 
L 391.029375 227.25784 
L 391.029375 226.58768 
L 391.029375 225.91752 
L 391.029375 225.24736 
L 391.029375 224.5772 
L 391.029375 223.90704 
L 391.029375 223.23688 
L 391.029375 222.56672 
L 391.029375 221.89656 
L 391.029375 221.2264 
L 391.029375 220.55624 
L 391.029375 219.88608 
L 391.029375 219.21592 
L 391.029375 218.54576 
L 391.029375 217.8756 
L 391.029375 217.20544 
L 391.029375 216.53528 
L 391.029375 215.86512 
L 391.029375 215.19496 
L 391.029375 214.5248 
L 391.029375 213.85464 
L 391.029375 213.18448 
L 391.029375 212.51432 
L 391.029375 211.84416 
L 391.029375 211.174 
L 391.029375 210.50384 
L 391.029375 209.83368 
L 391.029375 209.16352 
L 391.029375 208.49336 
L 391.029375 207.8232 
L 391.029375 207.15304 
L 391.029375 206.48288 
L 391.029375 205.81272 
L 391.029375 205.14256 
L 391.029375 204.4724 
L 391.029375 203.80224 
L 391.029375 203.13208 
L 391.029375 202.46192 
L 391.029375 201.79176 
L 391.029375 201.1216 
L 391.029375 200.45144 
L 391.029375 199.78128 
L 391.029375 199.11112 
L 391.029375 198.44096 
L 391.029375 197.7708 
L 391.029375 197.10064 
L 391.029375 196.43048 
L 391.029375 195.76032 
L 391.029375 195.09016 
L 391.029375 194.42 
L 391.029375 193.74984 
L 391.029375 193.07968 
L 391.029375 192.40952 
L 391.029375 191.73936 
L 391.029375 191.0692 
L 391.029375 190.39904 
L 391.029375 189.72888 
L 391.029375 189.05872 
L 391.029375 188.38856 
L 391.029375 187.7184 
L 391.029375 187.04824 
L 391.029375 186.37808 
L 391.029375 185.70792 
L 391.029375 185.03776 
L 391.029375 184.3676 
L 391.029375 183.69744 
L 391.029375 183.02728 
L 391.029375 182.35712 
L 391.029375 181.68696 
L 391.029375 181.0168 
L 391.029375 180.34664 
L 391.029375 179.67648 
L 391.029375 179.00632 
L 391.029375 178.33616 
L 391.029375 177.666 
L 391.029375 176.99584 
L 391.029375 176.32568 
L 391.029375 175.65552 
L 391.029375 174.98536 
L 391.029375 174.3152 
L 391.029375 173.64504 
L 391.029375 172.97488 
L 391.029375 172.30472 
L 391.029375 171.63456 
L 391.029375 170.9644 
L 391.029375 170.29424 
L 391.029375 169.62408 
L 391.029375 168.95392 
L 391.029375 168.28376 
L 391.029375 167.6136 
L 391.029375 166.94344 
L 391.029375 166.27328 
L 391.029375 165.60312 
L 391.029375 164.93296 
L 391.029375 164.2628 
L 391.029375 163.59264 
L 391.029375 162.92248 
L 391.029375 162.25232 
L 391.029375 161.58216 
L 391.029375 160.912 
L 391.029375 160.24184 
L 391.029375 159.57168 
L 391.029375 158.90152 
L 391.029375 158.23136 
L 391.029375 157.5612 
L 391.029375 156.89104 
L 391.029375 156.22088 
L 391.029375 155.55072 
L 391.029375 154.88056 
L 391.029375 154.2104 
L 391.029375 153.54024 
L 391.029375 152.87008 
L 391.029375 152.19992 
L 391.029375 151.52976 
L 391.029375 150.8596 
L 391.029375 150.18944 
L 391.029375 149.51928 
L 391.029375 148.84912 
L 391.029375 148.17896 
L 391.029375 147.5088 
L 391.029375 146.83864 
L 391.029375 146.16848 
L 391.029375 145.49832 
L 391.029375 144.82816 
L 391.029375 144.158 
L 391.029375 143.48784 
L 391.029375 142.81768 
L 391.029375 142.14752 
L 391.029375 141.47736 
L 391.029375 140.8072 
L 391.029375 140.13704 
L 391.029375 139.46688 
L 391.029375 138.79672 
L 391.029375 138.12656 
L 391.029375 137.4564 
L 391.029375 136.78624 
L 391.029375 136.11608 
L 391.029375 135.44592 
L 391.029375 134.77576 
L 391.029375 134.1056 
L 391.029375 133.43544 
L 391.029375 132.76528 
L 391.029375 132.09512 
L 391.029375 131.42496 
L 391.029375 130.7548 
L 391.029375 130.08464 
L 391.029375 129.41448 
L 391.029375 128.74432 
L 391.029375 128.07416 
L 391.029375 127.404 
L 391.029375 126.73384 
L 391.029375 126.06368 
L 391.029375 125.39352 
L 391.029375 124.72336 
L 391.029375 124.0532 
L 391.029375 123.38304 
L 391.029375 122.71288 
L 391.029375 122.04272 
L 391.029375 121.37256 
L 391.029375 120.7024 
L 391.029375 120.03224 
L 391.029375 119.36208 
L 391.029375 118.69192 
L 391.029375 118.02176 
L 391.029375 117.3516 
L 391.029375 116.68144 
L 391.029375 116.01128 
L 391.029375 115.34112 
L 391.029375 114.67096 
L 391.029375 114.0008 
L 391.029375 113.33064 
L 391.029375 112.66048 
L 391.029375 111.99032 
L 391.029375 111.32016 
L 391.029375 110.65 
L 391.029375 109.97984 
L 391.029375 109.30968 
L 391.029375 108.63952 
L 391.029375 107.96936 
L 391.029375 107.2992 
L 391.029375 106.62904 
L 391.029375 105.95888 
L 391.029375 105.28872 
L 391.029375 104.61856 
L 391.029375 103.9484 
L 391.029375 103.27824 
L 391.029375 102.60808 
L 391.029375 101.93792 
L 391.029375 101.26776 
L 391.029375 100.5976 
L 391.029375 99.92744 
L 391.029375 99.25728 
L 391.029375 98.58712 
L 391.029375 97.91696 
L 391.029375 97.2468 
L 391.029375 96.57664 
L 391.029375 95.90648 
L 391.029375 95.23632 
L 391.029375 94.56616 
L 391.029375 93.896 
L 391.029375 93.22584 
L 391.029375 92.55568 
L 391.029375 91.88552 
L 391.029375 91.21536 
L 391.029375 90.5452 
L 391.029375 89.87504 
L 391.029375 89.20488 
L 391.029375 88.53472 
L 391.029375 87.86456 
L 391.029375 87.1944 
L 391.029375 86.52424 
L 391.029375 85.85408 
L 391.029375 85.18392 
L 391.029375 84.51376 
L 391.029375 83.8436 
L 391.029375 83.17344 
L 391.029375 82.50328 
L 391.029375 81.83312 
L 391.029375 81.16296 
L 391.029375 80.4928 
L 391.029375 79.82264 
L 391.029375 79.15248 
L 391.029375 78.48232 
L 391.029375 77.81216 
L 391.029375 77.142 
L 391.029375 76.47184 
L 391.029375 75.80168 
L 391.029375 75.13152 
L 391.029375 74.46136 
L 391.029375 73.7912 
L 391.029375 73.12104 
L 391.029375 72.45088 
L 391.029375 71.78072 
L 391.029375 71.11056 
L 391.029375 70.4404 
L 391.029375 69.77024 
L 391.029375 69.10008 
L 391.029375 68.42992 
L 391.029375 67.75976 
L 391.029375 67.0896 
L 391.029375 66.41944 
L 391.029375 65.74928 
L 391.029375 65.07912 
L 391.029375 64.40896 
L 391.029375 63.7388 
L 391.029375 63.06864 
L 391.029375 62.39848 
L 391.029375 61.72832 
L 391.029375 61.05816 
L 391.029375 60.388 
L 391.029375 59.71784 
L 391.029375 59.04768 
L 391.029375 58.37752 
L 391.029375 57.70736 
L 391.029375 57.0372 
L 391.029375 56.36704 
L 391.029375 55.69688 
L 391.029375 55.02672 
L 391.029375 54.35656 
L 391.029375 53.6864 
L 391.029375 53.01624 
L 391.029375 52.34608 
L 391.029375 51.67592 
L 391.029375 51.00576 
L 391.029375 50.3356 
L 391.029375 49.66544 
L 391.029375 48.99528 
L 391.029375 48.32512 
L 391.029375 47.65496 
L 391.029375 46.9848 
L 391.029375 46.31464 
L 391.029375 45.64448 
L 391.029375 44.97432 
L 391.029375 44.30416 
L 391.029375 43.634 
L 391.029375 42.96384 
L 391.029375 42.29368 
L 391.029375 41.62352 
L 391.029375 40.95336 
L 391.029375 40.2832 
L 391.029375 39.61304 
L 391.029375 38.94288 
L 391.029375 38.27272 
L 391.029375 37.60256 
L 391.029375 36.9324 
L 391.029375 36.26224 
L 391.029375 35.59208 
L 391.029375 34.92192 
L 391.029375 34.25176 
L 391.029375 33.5816 
L 391.029375 32.91144 
L 391.029375 32.24128 
L 391.029375 31.57112 
L 391.029375 30.90096 
L 391.029375 30.2308 
L 391.029375 29.56064 
L 391.029375 28.89048 
L 391.029375 28.22032 
L 391.029375 27.55016 
L 391.029375 26.88 
L 390.359215 26.88 
L 389.689055 26.88 
L 389.018895 26.88 
L 388.348735 26.88 
L 387.678575 26.88 
L 387.008415 26.88 
L 386.338255 26.88 
L 385.668095 26.88 
L 384.997935 26.88 
L 384.327775 26.88 
L 383.657615 26.88 
L 382.987455 26.88 
L 382.317295 26.88 
L 381.647135 26.88 
L 380.976975 26.88 
L 380.306815 26.88 
L 379.636655 26.88 
L 378.966495 26.88 
L 378.296335 26.88 
L 377.626175 26.88 
L 376.956015 26.88 
L 376.285855 26.88 
L 375.615695 26.88 
L 374.945535 26.88 
L 374.275375 26.88 
L 373.605215 26.88 
L 372.935055 26.88 
L 372.264895 26.88 
L 371.594735 26.88 
L 370.924575 26.88 
L 370.254415 26.88 
L 369.584255 26.88 
L 368.914095 26.88 
L 368.243935 26.88 
L 367.573775 26.88 
L 366.903615 26.88 
L 366.233455 26.88 
L 365.563295 26.88 
L 364.893135 26.88 
L 364.222975 26.88 
L 363.552815 26.88 
L 362.882655 26.88 
L 362.212495 26.88 
L 361.542335 26.88 
L 360.872175 26.88 
L 360.202015 26.88 
L 359.531855 26.88 
L 358.861695 26.88 
L 358.191535 26.88 
L 357.521375 26.88 
L 356.851215 26.88 
L 356.181055 26.88 
L 355.510895 26.88 
L 354.840735 26.88 
L 354.170575 26.88 
L 353.500415 26.88 
L 352.830255 26.88 
L 352.160095 26.88 
L 351.489935 26.88 
L 350.819775 26.88 
L 350.149615 26.88 
L 349.479455 26.88 
L 348.809295 26.88 
L 348.139135 26.88 
L 347.468975 26.88 
L 346.798815 26.88 
L 346.128655 26.88 
L 345.458495 26.88 
L 344.788335 26.88 
L 344.118175 26.88 
L 343.448015 26.88 
L 342.777855 26.88 
L 342.107695 26.88 
L 341.437535 26.88 
L 340.767375 26.88 
L 340.097215 26.88 
L 339.427055 26.88 
L 338.756895 26.88 
L 338.086735 26.88 
L 337.416575 26.88 
L 336.746415 26.88 
L 336.076255 26.88 
L 335.406095 26.88 
L 334.735935 26.88 
L 334.065775 26.88 
L 333.395615 26.88 
L 332.725455 26.88 
L 332.055295 26.88 
L 331.385135 26.88 
L 330.714975 26.88 
L 330.044815 26.88 
L 329.374655 26.88 
L 328.704495 26.88 
L 328.034335 26.88 
L 327.364175 26.88 
L 326.694015 26.88 
L 326.023855 26.88 
L 325.353695 26.88 
L 324.683535 26.88 
L 324.013375 26.88 
L 323.343215 26.88 
L 322.673055 26.88 
L 322.002895 26.88 
L 321.332735 26.88 
L 320.662575 26.88 
L 319.992415 26.88 
L 319.322255 26.88 
L 318.652095 26.88 
L 317.981935 26.88 
L 317.311775 26.88 
L 316.641615 26.88 
L 315.971455 26.88 
L 315.301295 26.88 
L 314.631135 26.88 
L 313.960975 26.88 
L 313.290815 26.88 
L 312.620655 26.88 
L 311.950495 26.88 
L 311.280335 26.88 
L 310.610175 26.88 
L 309.940015 26.88 
L 309.269855 26.88 
L 308.599695 26.88 
L 307.929535 26.88 
L 307.259375 26.88 
L 306.589215 26.88 
L 305.919055 26.88 
L 305.248895 26.88 
L 304.578735 26.88 
L 303.908575 26.88 
L 303.238415 26.88 
L 302.568255 26.88 
L 301.898095 26.88 
L 301.227935 26.88 
L 300.557775 26.88 
L 299.887615 26.88 
L 299.217455 26.88 
L 298.547295 26.88 
L 297.877135 26.88 
L 297.206975 26.88 
L 296.536815 26.88 
L 295.866655 26.88 
L 295.196495 26.88 
L 294.526335 26.88 
L 293.856175 26.88 
L 293.186015 26.88 
L 292.515855 26.88 
L 291.845695 26.88 
L 291.175535 26.88 
L 290.505375 26.88 
L 289.835215 26.88 
L 289.165055 26.88 
L 288.494895 26.88 
L 287.824735 26.88 
L 287.154575 26.88 
L 286.484415 26.88 
L 285.814255 26.88 
L 285.144095 26.88 
L 284.473935 26.88 
L 283.803775 26.88 
L 283.133615 26.88 
L 282.463455 26.88 
L 281.793295 26.88 
L 281.123135 26.88 
L 280.452975 26.88 
L 279.782815 26.88 
L 279.112655 26.88 
L 278.442495 26.88 
L 277.772335 26.88 
L 277.102175 26.88 
L 276.432015 26.88 
L 275.761855 26.88 
L 275.091695 26.88 
L 274.421535 26.88 
L 273.751375 26.88 
L 273.081215 26.88 
L 272.411055 26.88 
L 271.740895 26.88 
L 271.070735 26.88 
L 270.400575 26.88 
L 269.730415 26.88 
L 269.060255 26.88 
L 268.390095 26.88 
L 267.719935 26.88 
L 267.049775 26.88 
L 266.379615 26.88 
L 265.709455 26.88 
L 265.039295 26.88 
L 264.369135 26.88 
L 263.698975 26.88 
L 263.028815 26.88 
L 262.358655 26.88 
L 261.688495 26.88 
L 261.018335 26.88 
L 260.348175 26.88 
L 259.678015 26.88 
L 259.007855 26.88 
L 258.337695 26.88 
L 257.667535 26.88 
L 256.997375 26.88 
L 256.327215 26.88 
L 255.657055 26.88 
L 254.986895 26.88 
L 254.316735 26.88 
L 253.646575 26.88 
L 252.976415 26.88 
L 252.306255 26.88 
L 251.636095 26.88 
L 250.965935 26.88 
L 250.295775 26.88 
L 249.625615 26.88 
L 248.955455 26.88 
L 248.285295 26.88 
L 247.615135 26.88 
L 246.944975 26.88 
L 246.274815 26.88 
L 245.604655 26.88 
L 244.934495 26.88 
L 244.264335 26.88 
L 243.594175 26.88 
L 242.924015 26.88 
L 242.253855 26.88 
L 241.583695 26.88 
L 240.913535 26.88 
L 240.243375 26.88 
L 239.573215 26.88 
L 238.903055 26.88 
L 238.232895 26.88 
L 237.562735 26.88 
L 236.892575 26.88 
L 236.222415 26.88 
L 235.552255 26.88 
L 234.882095 26.88 
L 234.211935 26.88 
L 233.541775 26.88 
L 232.871615 26.88 
L 232.201455 26.88 
L 231.531295 26.88 
L 230.861135 26.88 
L 230.190975 26.88 
L 229.520815 26.88 
L 228.850655 26.88 
L 228.180495 26.88 
L 227.510335 26.88 
L 226.840175 26.88 
L 226.170015 26.88 
L 225.499855 26.88 
L 224.829695 26.88 
L 224.159535 26.88 
L 223.489375 26.88 
L 222.819215 26.88 
L 222.149055 26.88 
L 221.478895 26.88 
L 220.808735 26.88 
L 220.138575 26.88 
L 219.468415 26.88 
L 218.798255 26.88 
L 218.128095 26.88 
L 217.457935 26.88 
L 216.787775 26.88 
L 216.117615 26.88 
L 215.447455 26.88 
L 214.777295 26.88 
L 214.107135 26.88 
L 213.436975 26.88 
L 212.766815 26.88 
L 212.096655 26.88 
L 211.426495 26.88 
L 210.756335 26.88 
L 210.086175 26.88 
L 209.416015 26.88 
L 208.745855 26.88 
L 208.075695 26.88 
L 207.405535 26.88 
L 206.735375 26.88 
L 206.065215 26.88 
L 205.395055 26.88 
L 204.724895 26.88 
L 204.054735 26.88 
L 203.384575 26.88 
L 202.714415 26.88 
L 202.044255 26.88 
L 201.374095 26.88 
L 200.703935 26.88 
L 200.033775 26.88 
L 199.363615 26.88 
L 198.693455 26.88 
L 198.023295 26.88 
L 197.353135 26.88 
L 196.682975 26.88 
L 196.012815 26.88 
L 195.342655 26.88 
L 194.672495 26.88 
L 194.002335 26.88 
L 193.332175 26.88 
L 192.662015 26.88 
L 191.991855 26.88 
L 191.321695 26.88 
L 190.651535 26.88 
L 189.981375 26.88 
L 189.311215 26.88 
L 188.641055 26.88 
L 187.970895 26.88 
L 187.300735 26.88 
L 186.630575 26.88 
L 185.960415 26.88 
L 185.290255 26.88 
L 184.620095 26.88 
L 183.949935 26.88 
L 183.279775 26.88 
L 182.609615 26.88 
L 181.939455 26.88 
L 181.269295 26.88 
L 180.599135 26.88 
L 179.928975 26.88 
L 179.258815 26.88 
L 178.588655 26.88 
L 177.918495 26.88 
L 177.248335 26.88 
L 176.578175 26.88 
L 175.908015 26.88 
L 175.237855 26.88 
L 174.567695 26.88 
L 173.897535 26.88 
L 173.227375 26.88 
L 172.557215 26.88 
L 171.887055 26.88 
L 171.216895 26.88 
L 170.546735 26.88 
L 169.876575 26.88 
L 169.206415 26.88 
L 168.536255 26.88 
L 167.866095 26.88 
L 167.195935 26.88 
L 166.525775 26.88 
L 165.855615 26.88 
L 165.185455 26.88 
L 164.515295 26.88 
L 163.845135 26.88 
L 163.174975 26.88 
L 162.504815 26.88 
L 161.834655 26.88 
L 161.164495 26.88 
L 160.494335 26.88 
L 159.824175 26.88 
L 159.154015 26.88 
L 158.483855 26.88 
L 157.813695 26.88 
L 157.143535 26.88 
L 156.473375 26.88 
L 155.803215 26.88 
L 155.133055 26.88 
L 154.462895 26.88 
L 153.792735 26.88 
L 153.122575 26.88 
L 152.452415 26.88 
L 151.782255 26.88 
L 151.112095 26.88 
L 150.441935 26.88 
L 149.771775 26.88 
L 149.101615 26.88 
L 148.431455 26.88 
L 147.761295 26.88 
L 147.091135 26.88 
L 146.420975 26.88 
L 145.750815 26.88 
L 145.080655 26.88 
L 144.410495 26.88 
L 143.740335 26.88 
L 143.070175 26.88 
L 142.400015 26.88 
L 141.729855 26.88 
L 141.059695 26.88 
L 140.389535 26.88 
L 139.719375 26.88 
L 139.049215 26.88 
L 138.379055 26.88 
L 137.708895 26.88 
L 137.038735 26.88 
L 136.368575 26.88 
L 135.698415 26.88 
L 135.028255 26.88 
L 134.358095 26.88 
L 133.687935 26.88 
L 133.017775 26.88 
L 132.347615 26.88 
L 131.677455 26.88 
L 131.007295 26.88 
L 130.337135 26.88 
L 129.666975 26.88 
L 128.996815 26.88 
L 128.326655 26.88 
L 127.656495 26.88 
L 126.986335 26.88 
L 126.316175 26.88 
L 125.646015 26.88 
L 124.975855 26.88 
L 124.305695 26.88 
L 123.635535 26.88 
L 122.965375 26.88 
L 122.965375 26.88 
L 122.831522 27.55016 
L 122.69758 28.22032 
L 122.563549 28.89048 
L 122.429427 29.56064 
L 122.295215 30.2308 
L 122.295215 30.2308 
L 122.161364 30.90096 
L 122.027423 31.57112 
L 121.893391 32.24128 
L 121.759269 32.91144 
L 121.625055 33.5816 
L 121.625055 33.5816 
L 121.491206 34.25176 
L 121.357266 34.92192 
L 121.223234 35.59208 
L 121.089111 36.26224 
L 120.954895 36.9324 
L 120.954895 36.9324 
L 120.821048 37.60256 
L 120.687108 38.27272 
L 120.553077 38.94288 
L 120.418953 39.61304 
L 120.284735 40.2832 
L 120.284735 40.2832 
L 120.15089 40.95336 
L 120.016951 41.62352 
L 119.88292 42.29368 
L 119.748795 42.96384 
L 119.614575 43.634 
L 119.614575 43.634 
L 119.480732 44.30416 
L 119.346794 44.97432 
L 119.212763 45.64448 
L 119.078637 46.31464 
L 118.944415 46.9848 
L 118.944415 46.9848 
L 118.810574 47.65496 
L 118.676637 48.32512 
L 118.542606 48.99528 
L 118.408479 49.66544 
L 118.274255 50.3356 
L 118.274255 50.3356 
L 118.140416 51.00576 
L 118.00648 51.67592 
L 117.872449 52.34608 
L 117.738321 53.01624 
L 117.604095 53.6864 
L 117.604095 53.6864 
L 117.470258 54.35656 
L 117.336324 55.02672 
L 117.202292 55.69688 
L 117.068163 56.36704 
L 116.933935 57.0372 
L 116.933935 57.0372 
L 116.8001 57.70736 
L 116.666167 58.37752 
L 116.532136 59.04768 
L 116.398005 59.71784 
L 116.263775 60.388 
L 116.263775 60.388 
L 116.129942 61.05816 
L 115.99601 61.72832 
L 115.861979 62.39848 
L 115.727847 63.06864 
L 115.593615 63.7388 
L 115.593615 63.7388 
L 115.459784 64.40896 
L 115.325854 65.07912 
L 115.191822 65.74928 
L 115.05769 66.41944 
L 114.923455 67.0896 
L 114.923455 67.0896 
L 114.789627 67.75976 
L 114.655697 68.42992 
L 114.521666 69.10008 
L 114.387532 69.77024 
L 114.253295 70.4404 
L 114.253295 70.4404 
L 114.119469 71.11056 
L 113.985541 71.78072 
L 113.851509 72.45088 
L 113.717374 73.12104 
L 113.583135 73.7912 
L 113.583135 73.7912 
L 113.449311 74.46136 
L 113.315384 75.13152 
L 113.181353 75.80168 
L 113.047217 76.47184 
L 112.912975 77.142 
L 112.912975 77.142 
L 112.779154 77.81216 
L 112.645228 78.48232 
L 112.511197 79.15248 
L 112.377059 79.82264 
L 112.242815 80.4928 
L 112.242815 80.4928 
L 112.108996 81.16296 
L 111.975072 81.83312 
L 111.84104 82.50328 
L 111.706902 83.17344 
L 111.572655 83.8436 
L 111.572655 83.8436 
L 111.438839 84.51376 
L 111.304916 85.18392 
L 111.170884 85.85408 
L 111.036744 86.52424 
L 110.902495 87.1944 
L 110.902495 87.1944 
L 110.768681 87.86456 
L 110.63476 88.53472 
L 110.500728 89.20488 
L 110.366587 89.87504 
L 110.232335 90.5452 
L 110.232335 90.5452 
L 110.098524 91.21536 
L 109.964604 91.88552 
L 109.830572 92.55568 
L 109.69643 93.22584 
L 109.562175 93.896 
L 109.562175 93.896 
L 109.428367 94.56616 
L 109.294448 95.23632 
L 109.160417 95.90648 
L 109.026273 96.57664 
L 108.892015 97.2468 
L 108.892015 97.2468 
L 108.75821 97.91696 
L 108.624292 98.58712 
L 108.490261 99.25728 
L 108.356116 99.92744 
L 108.221855 100.5976 
L 108.221855 100.5976 
L 108.088053 101.26776 
L 107.954136 101.93792 
L 107.820105 102.60808 
L 107.685958 103.27824 
L 107.551695 103.9484 
L 107.551695 103.9484 
L 107.417896 104.61856 
L 107.283981 105.28872 
L 107.14995 105.95888 
L 107.015802 106.62904 
L 106.881535 107.2992 
L 106.881535 107.2992 
L 106.747739 107.96936 
L 106.613826 108.63952 
L 106.479795 109.30968 
L 106.345645 109.97984 
L 106.211375 110.65 
L 106.211375 110.65 
L 106.077582 111.32016 
L 105.94367 111.99032 
L 105.809639 112.66048 
L 105.675488 113.33064 
L 105.541215 114.0008 
L 105.541215 114.0008 
L 105.407425 114.67096 
L 105.273515 115.34112 
L 105.139484 116.01128 
L 105.005331 116.68144 
L 104.871055 117.3516 
L 104.871055 117.3516 
L 104.737268 118.02176 
L 104.60336 118.69192 
L 104.469329 119.36208 
L 104.335175 120.03224 
L 104.200895 120.7024 
L 104.200895 120.7024 
L 104.067112 121.37256 
L 103.933205 122.04272 
L 103.799174 122.71288 
L 103.665018 123.38304 
L 103.530735 124.0532 
L 103.530735 124.0532 
L 103.396955 124.72336 
L 103.263051 125.39352 
L 103.12902 126.06368 
L 102.994862 126.73384 
L 102.860575 127.404 
L 102.860575 127.404 
L 102.726799 128.07416 
L 102.592896 128.74432 
L 102.458865 129.41448 
L 102.324705 130.08464 
L 102.190415 130.7548 
L 102.190415 130.7548 
L 102.056643 131.42496 
L 101.922742 132.09512 
L 101.788711 132.76528 
L 101.654549 133.43544 
L 101.520255 134.1056 
L 101.520255 134.1056 
L 101.386487 134.77576 
L 101.252588 135.44592 
L 101.118557 136.11608 
L 100.984393 136.78624 
L 100.850095 137.4564 
L 100.850095 137.4564 
L 100.716331 138.12656 
L 100.582433 138.79672 
L 100.448403 139.46688 
L 100.314237 140.13704 
L 100.179935 140.8072 
L 100.179935 140.8072 
L 100.046175 141.47736 
L 99.91228 142.14752 
L 99.778249 142.81768 
L 99.644081 143.48784 
L 99.509775 144.158 
L 99.509775 144.158 
L 99.376019 144.82816 
L 99.242126 145.49832 
L 99.108095 146.16848 
L 98.973925 146.83864 
L 98.839615 147.5088 
L 98.839615 147.5088 
L 98.705863 148.17896 
L 98.571972 148.84912 
L 98.437942 149.51928 
L 98.30377 150.18944 
L 98.169455 150.8596 
L 98.169455 150.8596 
L 98.035708 151.52976 
L 97.901819 152.19992 
L 97.767789 152.87008 
L 97.633614 153.54024 
L 97.499295 154.2104 
L 97.499295 154.2104 
L 97.365552 154.88056 
L 97.231666 155.55072 
L 97.097636 156.22088 
L 96.963459 156.89104 
L 96.829135 157.5612 
L 96.829135 157.5612 
L 96.695397 158.23136 
L 96.561513 158.90152 
L 96.427483 159.57168 
L 96.293304 160.24184 
L 96.158975 160.912 
L 96.158975 160.912 
L 96.025242 161.58216 
L 95.891361 162.25232 
L 95.75733 162.92248 
L 95.623149 163.59264 
L 95.488815 164.2628 
L 95.488815 164.2628 
L 95.355087 164.93296 
L 95.221208 165.60312 
L 95.087178 166.27328 
L 94.952994 166.94344 
L 94.818655 167.6136 
L 94.818655 167.6136 
L 94.684932 168.28376 
L 94.551056 168.95392 
L 94.417026 169.62408 
L 94.282839 170.29424 
L 94.148495 170.9644 
L 94.148495 170.9644 
L 94.014778 171.63456 
L 93.880905 172.30472 
L 93.746874 172.97488 
L 93.612685 173.64504 
L 93.478335 174.3152 
L 93.478335 174.3152 
L 93.344623 174.98536 
L 93.210753 175.65552 
L 93.076723 176.32568 
L 92.942531 176.99584 
L 92.808175 177.666 
L 92.808175 177.666 
L 92.674469 178.33616 
L 92.540602 179.00632 
L 92.406572 179.67648 
L 92.272377 180.34664 
L 92.138015 181.0168 
L 92.138015 181.0168 
L 92.004315 181.68696 
L 91.870451 182.35712 
L 91.736421 183.02728 
L 91.602223 183.69744 
L 91.467855 184.3676 
L 91.467855 184.3676 
L 91.334161 185.03776 
L 91.200301 185.70792 
L 91.066271 186.37808 
L 90.932069 187.04824 
L 90.797695 187.7184 
L 90.797695 187.7184 
L 90.664008 188.38856 
L 90.530151 189.05872 
L 90.396121 189.72888 
L 90.261916 190.39904 
L 90.127535 191.0692 
L 90.127535 191.0692 
L 89.993855 191.73936 
L 89.860001 192.40952 
L 89.725971 193.07968 
L 89.591763 193.74984 
L 89.457375 194.42 
L 89.457375 194.42 
L 89.323702 195.09016 
L 89.189851 195.76032 
L 89.055822 196.43048 
L 88.92161 197.10064 
L 88.787215 197.7708 
L 88.787215 197.7708 
L 88.653549 198.44096 
L 88.519703 199.11112 
L 88.385673 199.78128 
L 88.251458 200.45144 
L 88.117055 201.1216 
L 88.117055 201.1216 
L 87.983397 201.79176 
L 87.849554 202.46192 
L 87.715525 203.13208 
L 87.581306 203.80224 
L 87.446895 204.4724 
L 87.446895 204.4724 
L 87.313245 205.14256 
L 87.179406 205.81272 
L 87.045377 206.48288 
L 86.911154 207.15304 
L 86.776735 207.8232 
L 86.776735 207.8232 
L 86.643093 208.49336 
L 86.509259 209.16352 
L 86.375229 209.83368 
L 86.241002 210.50384 
L 86.106575 211.174 
L 86.106575 211.174 
L 85.972942 211.84416 
L 85.839112 212.51432 
L 85.705083 213.18448 
L 85.570851 213.85464 
L 85.436415 214.5248 
L 85.436415 214.5248 
L 85.302791 215.19496 
L 85.168966 215.86512 
L 85.034937 216.53528 
L 84.900701 217.20544 
L 84.766255 217.8756 
L 84.766255 217.8756 
L 84.632641 218.54576 
L 84.49882 219.21592 
L 84.364791 219.88608 
L 84.23055 220.55624 
L 84.096095 221.2264 
L 84.096095 221.2264 
L 83.962491 221.89656 
L 83.828675 222.56672 
L 83.694646 223.23688 
L 83.560401 223.90704 
L 83.425935 224.5772 
L 83.425935 224.5772 
L 83.292341 225.24736 
L 83.158531 225.91752 
L 83.024503 226.58768 
L 82.890252 227.25784 
L 82.755775 227.928 
L 82.755775 227.928 
L 82.622192 228.59816 
L 82.488388 229.26832 
L 82.354359 229.93848 
L 82.220103 230.60864 
L 82.085615 231.2788 
L 82.085615 231.2788 
L 81.952044 231.94896 
L 81.818245 232.61912 
L 81.684217 233.28928 
L 81.549955 233.95944 
L 81.415455 234.6296 
L 81.415455 234.6296 
L 81.281896 235.29976 
L 81.148104 235.96992 
L 81.014076 236.64008 
L 80.879807 237.31024 
L 80.745295 237.9804 
L 80.745295 237.9804 
L 80.611749 238.65056 
L 80.477963 239.32072 
L 80.343935 239.99088 
L 80.209661 240.66104 
L 80.075135 241.3312 
L 80.075135 241.3312 
L 79.941602 242.00136 
L 79.807824 242.67152 
L 79.673796 243.34168 
L 79.539515 244.01184 
L 79.404975 244.682 
L 79.404975 244.682 
L 79.271457 245.35216 
L 79.137686 246.02232 
L 79.003658 246.69248 
L 78.86937 247.36264 
L 78.734815 248.0328 
L 78.734815 248.0328 
L 78.601312 248.70296 
L 78.467549 249.37312 
L 78.333522 250.04328 
L 78.199225 250.71344 
L 78.064655 251.3836 
L 78.064655 251.3836 
L 77.931168 252.05376 
L 77.797413 252.72392 
L 77.663386 253.39408 
L 77.529082 254.06424 
L 77.394495 254.7344 
L 77.394495 254.7344 
L 77.261025 255.40456 
L 77.127279 256.07472 
L 76.993253 256.74488 
L 76.85894 257.41504 
L 76.724335 258.0852 
L 76.724335 258.0852 
L 76.590883 258.75536 
L 76.457147 259.42552 
L 76.323121 260.09568 
L 76.188799 260.76584 
L 76.054175 261.436 
L 76.054175 261.436 
L 75.920743 262.10616 
L 75.787017 262.77632 
L 75.652991 263.44648 
L 75.518659 264.11664 
L 75.384015 264.7868 
L 75.384015 264.7868 
L 75.250604 265.45696 
L 75.116888 266.12712 
L 74.982863 266.79728 
L 74.848521 267.46744 
L 74.713855 268.1376 
L 74.713855 268.1376 
L 74.580466 268.80776 
L 74.446762 269.47792 
L 74.312737 270.14808 
L 74.178384 270.81824 
L 74.043695 271.4884 
L 74.043695 271.4884 
L 73.91033 272.15856 
L 73.776639 272.82872 
L 73.642614 273.49888 
L 73.508249 274.16904 
L 73.373535 274.8392 
L 73.373535 274.8392 
L 73.240196 275.50936 
L 73.106518 276.17952 
L 72.972494 276.84968 
L 72.838116 277.51984 
L 72.703375 278.19 
L 72.703375 278.19 
L 72.570064 278.86016 
L 72.436401 279.53032 
L 72.302378 280.20048 
L 72.167985 280.87064 
L 72.033215 281.5408 
L 72.033215 281.5408 
L 71.899934 282.21096 
L 71.766287 282.88112 
L 71.632265 283.55128 
L 71.497857 284.22144 
L 71.363055 284.8916 
L 71.363055 284.8916 
L 71.229807 285.56176 
L 71.096177 286.23192 
L 70.962156 286.90208 
L 70.827732 287.57224 
L 70.692895 288.2424 
L 70.692895 288.2424 
L 70.559683 288.91256 
L 70.426072 289.58272 
L 70.292052 290.25288 
L 70.15761 290.92304 
L 70.022735 291.5932 
L 70.022735 291.5932 
L 69.889562 292.26336 
L 69.755972 292.93352 
L 69.621953 293.60368 
L 69.487492 294.27384 
L 69.352575 294.944 
L 69.352575 294.944 
L 69.219446 295.61416 
L 69.085879 296.28432 
L 68.951861 296.95448 
L 68.817378 297.62464 
L 68.682415 298.2948 
L 68.682415 298.2948 
L 68.549334 298.96496 
L 68.415792 299.63512 
L 68.281776 300.30528 
L 68.147269 300.97544 
L 68.012255 301.6456 
L 68.012255 301.6456 
L 67.879227 302.31576 
L 67.745714 302.98592 
L 67.6117 303.65608 
L 67.477166 304.32624 
L 67.342095 304.9964 
L 67.342095 304.9964 
L 67.209127 305.66656 
L 67.075646 306.33672 
L 66.941634 307.00688 
L 66.80707 307.67704 
L 66.671935 308.3472 
L 66.671935 308.3472 
L 66.539034 309.01736 
L 66.405589 309.68752 
L 66.27158 310.35768 
L 66.136983 311.02784 
L 66.001775 311.698 
L 66.001775 311.698 
L 65.86895 312.36816 
L 65.735547 313.03832 
L 65.601541 313.70848 
L 65.466906 314.37864 
L 65.331615 315.0488 
L 65.331615 315.0488 
L 65.198878 315.71896 
L 65.065522 316.38912 
L 64.931519 317.05928 
L 64.796841 317.72944 
L 64.661455 318.3996 
L 64.661455 318.3996 
L 64.528819 319.06976 
L 64.395518 319.73992 
L 64.261521 320.41008 
L 64.126792 321.08024 
L 63.991295 321.7504 
L 63.991295 321.7504 
L 63.858777 322.42056 
L 63.725542 323.09072 
L 63.59155 323.76088 
L 63.456763 324.43104 
L 63.321135 325.1012 
L 63.321135 325.1012 
L 63.188758 325.77136 
L 63.0556 326.44152 
L 62.921617 327.11168 
L 62.786759 327.78184 
L 62.650975 328.452 
L 62.650975 328.452 
L 62.518767 329.12216 
L 62.385703 329.79232 
L 62.251731 330.46248 
L 62.116789 331.13264 
L 61.980815 331.8028 
L 61.980815 331.8028 
L 61.848814 332.47296 
L 61.715868 333.14312 
L 61.58191 333.81328 
L 61.446866 334.48344 
L 61.310655 335.1536 
L 61.310655 335.1536 
L 61.178914 335.82376 
L 61.046118 336.49392 
L 60.912181 337.16408 
L 60.777009 337.83424 
L 60.640495 338.5044 
L 60.640495 338.5044 
L 60.509091 339.17456 
L 60.376493 339.84472 
L 60.242588 340.51488 
L 60.107249 341.18504 
L 59.970335 341.8552 
L 59.970335 341.8552 
L 59.839384 342.52536 
L 59.707058 343.19552 
L 59.573203 343.86568 
L 59.437644 344.53584 
L 59.300175 345.206 
L 59.300175 345.206 
L 59.169866 345.87616 
L 59.037938 346.54632 
L 58.904171 347.21648 
L 58.768302 347.88664 
L 58.630015 348.5568 
L 58.630015 348.5568 
L 58.500686 349.22696 
L 58.369397 349.89712 
L 58.235803 350.56728 
L 58.099472 351.23744 
L 57.959855 351.9076 
L 57.959855 351.9076 
L 57.832205 352.57776 
L 57.702101 353.24792 
L 57.568928 353.91808 
L 57.43185 354.58824 
L 57.289695 355.2584 
L 57.289695 355.2584 
L 57.165591 355.92856 
L 57.038385 356.59872 
L 56.906746 357.26888 
L 56.768459 357.93904 
L 56.619535 358.6092 
L 56.619535 358.6092 
L 56.507842 359.27936 
L 56.396148 359.94952 
L 56.284455 360.61968 
L 56.172762 361.28984 
L 55.949375 361.401533 
L 55.949375 361.96 
z
" clip-path="url(#p58c402e6ba)" style="fill: #ff0000; fill-opacity: 0.3"/>
   </g>
   <g id="matplotlib.axis_1">
    <g id="xtick_1">
     <g id="line2d_1">
      <defs>
       <path id="m80dc8eb693" d="M 0 0 
L 0 3.5 
" style="stroke: #000000; stroke-width: 0.8"/>
      </defs>
      <g>
       <use xlink:href="#m80dc8eb693" x="55.949375" y="361.96" style="stroke: #000000; stroke-width: 0.8"/>
      </g>
     </g>
     <g id="text_1">
      <!-- 0.0 -->
      <g transform="translate(44.817188 379.597812) scale(0.14 -0.14)">
       <defs>
        <path id="DejaVuSans-30" d="M 2034 4250 
Q 1547 4250 1301 3770 
Q 1056 3291 1056 2328 
Q 1056 1369 1301 889 
Q 1547 409 2034 409 
Q 2525 409 2770 889 
Q 3016 1369 3016 2328 
Q 3016 3291 2770 3770 
Q 2525 4250 2034 4250 
z
M 2034 4750 
Q 2819 4750 3233 4129 
Q 3647 3509 3647 2328 
Q 3647 1150 3233 529 
Q 2819 -91 2034 -91 
Q 1250 -91 836 529 
Q 422 1150 422 2328 
Q 422 3509 836 4129 
Q 1250 4750 2034 4750 
z
" transform="scale(0.015625)"/>
        <path id="DejaVuSans-2e" d="M 684 794 
L 1344 794 
L 1344 0 
L 684 0 
L 684 794 
z
" transform="scale(0.015625)"/>
       </defs>
       <use xlink:href="#DejaVuSans-30"/>
       <use xlink:href="#DejaVuSans-2e" transform="translate(63.623047 0)"/>
       <use xlink:href="#DejaVuSans-30" transform="translate(95.410156 0)"/>
      </g>
     </g>
    </g>
    <g id="xtick_2">
     <g id="line2d_2">
      <g>
       <use xlink:href="#m80dc8eb693" x="122.965375" y="361.96" style="stroke: #000000; stroke-width: 0.8"/>
      </g>
     </g>
     <g id="text_2">
      <!-- 0.2 -->
      <g transform="translate(111.833187 379.597812) scale(0.14 -0.14)">
       <defs>
        <path id="DejaVuSans-32" d="M 1228 531 
L 3431 531 
L 3431 0 
L 469 0 
L 469 531 
Q 828 903 1448 1529 
Q 2069 2156 2228 2338 
Q 2531 2678 2651 2914 
Q 2772 3150 2772 3378 
Q 2772 3750 2511 3984 
Q 2250 4219 1831 4219 
Q 1534 4219 1204 4116 
Q 875 4013 500 3803 
L 500 4441 
Q 881 4594 1212 4672 
Q 1544 4750 1819 4750 
Q 2544 4750 2975 4387 
Q 3406 4025 3406 3419 
Q 3406 3131 3298 2873 
Q 3191 2616 2906 2266 
Q 2828 2175 2409 1742 
Q 1991 1309 1228 531 
z
" transform="scale(0.015625)"/>
       </defs>
       <use xlink:href="#DejaVuSans-30"/>
       <use xlink:href="#DejaVuSans-2e" transform="translate(63.623047 0)"/>
       <use xlink:href="#DejaVuSans-32" transform="translate(95.410156 0)"/>
      </g>
     </g>
    </g>
    <g id="xtick_3">
     <g id="line2d_3">
      <g>
       <use xlink:href="#m80dc8eb693" x="189.981375" y="361.96" style="stroke: #000000; stroke-width: 0.8"/>
      </g>
     </g>
     <g id="text_3">
      <!-- 0.4 -->
      <g transform="translate(178.849187 379.597812) scale(0.14 -0.14)">
       <defs>
        <path id="DejaVuSans-34" d="M 2419 4116 
L 825 1625 
L 2419 1625 
L 2419 4116 
z
M 2253 4666 
L 3047 4666 
L 3047 1625 
L 3713 1625 
L 3713 1100 
L 3047 1100 
L 3047 0 
L 2419 0 
L 2419 1100 
L 313 1100 
L 313 1709 
L 2253 4666 
z
" transform="scale(0.015625)"/>
       </defs>
       <use xlink:href="#DejaVuSans-30"/>
       <use xlink:href="#DejaVuSans-2e" transform="translate(63.623047 0)"/>
       <use xlink:href="#DejaVuSans-34" transform="translate(95.410156 0)"/>
      </g>
     </g>
    </g>
    <g id="xtick_4">
     <g id="line2d_4">
      <g>
       <use xlink:href="#m80dc8eb693" x="256.997375" y="361.96" style="stroke: #000000; stroke-width: 0.8"/>
      </g>
     </g>
     <g id="text_4">
      <!-- 0.6 -->
      <g transform="translate(245.865187 379.597812) scale(0.14 -0.14)">
       <defs>
        <path id="DejaVuSans-36" d="M 2113 2584 
Q 1688 2584 1439 2293 
Q 1191 2003 1191 1497 
Q 1191 994 1439 701 
Q 1688 409 2113 409 
Q 2538 409 2786 701 
Q 3034 994 3034 1497 
Q 3034 2003 2786 2293 
Q 2538 2584 2113 2584 
z
M 3366 4563 
L 3366 3988 
Q 3128 4100 2886 4159 
Q 2644 4219 2406 4219 
Q 1781 4219 1451 3797 
Q 1122 3375 1075 2522 
Q 1259 2794 1537 2939 
Q 1816 3084 2150 3084 
Q 2853 3084 3261 2657 
Q 3669 2231 3669 1497 
Q 3669 778 3244 343 
Q 2819 -91 2113 -91 
Q 1303 -91 875 529 
Q 447 1150 447 2328 
Q 447 3434 972 4092 
Q 1497 4750 2381 4750 
Q 2619 4750 2861 4703 
Q 3103 4656 3366 4563 
z
" transform="scale(0.015625)"/>
       </defs>
       <use xlink:href="#DejaVuSans-30"/>
       <use xlink:href="#DejaVuSans-2e" transform="translate(63.623047 0)"/>
       <use xlink:href="#DejaVuSans-36" transform="translate(95.410156 0)"/>
      </g>
     </g>
    </g>
    <g id="xtick_5">
     <g id="line2d_5">
      <g>
       <use xlink:href="#m80dc8eb693" x="324.013375" y="361.96" style="stroke: #000000; stroke-width: 0.8"/>
      </g>
     </g>
     <g id="text_5">
      <!-- 0.8 -->
      <g transform="translate(312.881188 379.597812) scale(0.14 -0.14)">
       <defs>
        <path id="DejaVuSans-38" d="M 2034 2216 
Q 1584 2216 1326 1975 
Q 1069 1734 1069 1313 
Q 1069 891 1326 650 
Q 1584 409 2034 409 
Q 2484 409 2743 651 
Q 3003 894 3003 1313 
Q 3003 1734 2745 1975 
Q 2488 2216 2034 2216 
z
M 1403 2484 
Q 997 2584 770 2862 
Q 544 3141 544 3541 
Q 544 4100 942 4425 
Q 1341 4750 2034 4750 
Q 2731 4750 3128 4425 
Q 3525 4100 3525 3541 
Q 3525 3141 3298 2862 
Q 3072 2584 2669 2484 
Q 3125 2378 3379 2068 
Q 3634 1759 3634 1313 
Q 3634 634 3220 271 
Q 2806 -91 2034 -91 
Q 1263 -91 848 271 
Q 434 634 434 1313 
Q 434 1759 690 2068 
Q 947 2378 1403 2484 
z
M 1172 3481 
Q 1172 3119 1398 2916 
Q 1625 2713 2034 2713 
Q 2441 2713 2670 2916 
Q 2900 3119 2900 3481 
Q 2900 3844 2670 4047 
Q 2441 4250 2034 4250 
Q 1625 4250 1398 4047 
Q 1172 3844 1172 3481 
z
" transform="scale(0.015625)"/>
       </defs>
       <use xlink:href="#DejaVuSans-30"/>
       <use xlink:href="#DejaVuSans-2e" transform="translate(63.623047 0)"/>
       <use xlink:href="#DejaVuSans-38" transform="translate(95.410156 0)"/>
      </g>
     </g>
    </g>
    <g id="xtick_6">
     <g id="line2d_6">
      <g>
       <use xlink:href="#m80dc8eb693" x="391.029375" y="361.96" style="stroke: #000000; stroke-width: 0.8"/>
      </g>
     </g>
     <g id="text_6">
      <!-- 1.0 -->
      <g transform="translate(379.897187 379.597812) scale(0.14 -0.14)">
       <defs>
        <path id="DejaVuSans-31" d="M 794 531 
L 1825 531 
L 1825 4091 
L 703 3866 
L 703 4441 
L 1819 4666 
L 2450 4666 
L 2450 531 
L 3481 531 
L 3481 0 
L 794 0 
L 794 531 
z
" transform="scale(0.015625)"/>
       </defs>
       <use xlink:href="#DejaVuSans-31"/>
       <use xlink:href="#DejaVuSans-2e" transform="translate(63.623047 0)"/>
       <use xlink:href="#DejaVuSans-30" transform="translate(95.410156 0)"/>
      </g>
     </g>
    </g>
    <g id="text_7">
     <!-- FPR (False Positive Rate) -->
     <g transform="translate(125.374375 398.666875) scale(0.16 -0.16)">
      <defs>
       <path id="DejaVuSans-46" d="M 628 4666 
L 3309 4666 
L 3309 4134 
L 1259 4134 
L 1259 2759 
L 3109 2759 
L 3109 2228 
L 1259 2228 
L 1259 0 
L 628 0 
L 628 4666 
z
" transform="scale(0.015625)"/>
       <path id="DejaVuSans-50" d="M 1259 4147 
L 1259 2394 
L 2053 2394 
Q 2494 2394 2734 2622 
Q 2975 2850 2975 3272 
Q 2975 3691 2734 3919 
Q 2494 4147 2053 4147 
L 1259 4147 
z
M 628 4666 
L 2053 4666 
Q 2838 4666 3239 4311 
Q 3641 3956 3641 3272 
Q 3641 2581 3239 2228 
Q 2838 1875 2053 1875 
L 1259 1875 
L 1259 0 
L 628 0 
L 628 4666 
z
" transform="scale(0.015625)"/>
       <path id="DejaVuSans-52" d="M 2841 2188 
Q 3044 2119 3236 1894 
Q 3428 1669 3622 1275 
L 4263 0 
L 3584 0 
L 2988 1197 
Q 2756 1666 2539 1819 
Q 2322 1972 1947 1972 
L 1259 1972 
L 1259 0 
L 628 0 
L 628 4666 
L 2053 4666 
Q 2853 4666 3247 4331 
Q 3641 3997 3641 3322 
Q 3641 2881 3436 2590 
Q 3231 2300 2841 2188 
z
M 1259 4147 
L 1259 2491 
L 2053 2491 
Q 2509 2491 2742 2702 
Q 2975 2913 2975 3322 
Q 2975 3731 2742 3939 
Q 2509 4147 2053 4147 
L 1259 4147 
z
" transform="scale(0.015625)"/>
       <path id="DejaVuSans-20" transform="scale(0.015625)"/>
       <path id="DejaVuSans-28" d="M 1984 4856 
Q 1566 4138 1362 3434 
Q 1159 2731 1159 2009 
Q 1159 1288 1364 580 
Q 1569 -128 1984 -844 
L 1484 -844 
Q 1016 -109 783 600 
Q 550 1309 550 2009 
Q 550 2706 781 3412 
Q 1013 4119 1484 4856 
L 1984 4856 
z
" transform="scale(0.015625)"/>
       <path id="DejaVuSans-61" d="M 2194 1759 
Q 1497 1759 1228 1600 
Q 959 1441 959 1056 
Q 959 750 1161 570 
Q 1363 391 1709 391 
Q 2188 391 2477 730 
Q 2766 1069 2766 1631 
L 2766 1759 
L 2194 1759 
z
M 3341 1997 
L 3341 0 
L 2766 0 
L 2766 531 
Q 2569 213 2275 61 
Q 1981 -91 1556 -91 
Q 1019 -91 701 211 
Q 384 513 384 1019 
Q 384 1609 779 1909 
Q 1175 2209 1959 2209 
L 2766 2209 
L 2766 2266 
Q 2766 2663 2505 2880 
Q 2244 3097 1772 3097 
Q 1472 3097 1187 3025 
Q 903 2953 641 2809 
L 641 3341 
Q 956 3463 1253 3523 
Q 1550 3584 1831 3584 
Q 2591 3584 2966 3190 
Q 3341 2797 3341 1997 
z
" transform="scale(0.015625)"/>
       <path id="DejaVuSans-6c" d="M 603 4863 
L 1178 4863 
L 1178 0 
L 603 0 
L 603 4863 
z
" transform="scale(0.015625)"/>
       <path id="DejaVuSans-73" d="M 2834 3397 
L 2834 2853 
Q 2591 2978 2328 3040 
Q 2066 3103 1784 3103 
Q 1356 3103 1142 2972 
Q 928 2841 928 2578 
Q 928 2378 1081 2264 
Q 1234 2150 1697 2047 
L 1894 2003 
Q 2506 1872 2764 1633 
Q 3022 1394 3022 966 
Q 3022 478 2636 193 
Q 2250 -91 1575 -91 
Q 1294 -91 989 -36 
Q 684 19 347 128 
L 347 722 
Q 666 556 975 473 
Q 1284 391 1588 391 
Q 1994 391 2212 530 
Q 2431 669 2431 922 
Q 2431 1156 2273 1281 
Q 2116 1406 1581 1522 
L 1381 1569 
Q 847 1681 609 1914 
Q 372 2147 372 2553 
Q 372 3047 722 3315 
Q 1072 3584 1716 3584 
Q 2034 3584 2315 3537 
Q 2597 3491 2834 3397 
z
" transform="scale(0.015625)"/>
       <path id="DejaVuSans-65" d="M 3597 1894 
L 3597 1613 
L 953 1613 
Q 991 1019 1311 708 
Q 1631 397 2203 397 
Q 2534 397 2845 478 
Q 3156 559 3463 722 
L 3463 178 
Q 3153 47 2828 -22 
Q 2503 -91 2169 -91 
Q 1331 -91 842 396 
Q 353 884 353 1716 
Q 353 2575 817 3079 
Q 1281 3584 2069 3584 
Q 2775 3584 3186 3129 
Q 3597 2675 3597 1894 
z
M 3022 2063 
Q 3016 2534 2758 2815 
Q 2500 3097 2075 3097 
Q 1594 3097 1305 2825 
Q 1016 2553 972 2059 
L 3022 2063 
z
" transform="scale(0.015625)"/>
       <path id="DejaVuSans-6f" d="M 1959 3097 
Q 1497 3097 1228 2736 
Q 959 2375 959 1747 
Q 959 1119 1226 758 
Q 1494 397 1959 397 
Q 2419 397 2687 759 
Q 2956 1122 2956 1747 
Q 2956 2369 2687 2733 
Q 2419 3097 1959 3097 
z
M 1959 3584 
Q 2709 3584 3137 3096 
Q 3566 2609 3566 1747 
Q 3566 888 3137 398 
Q 2709 -91 1959 -91 
Q 1206 -91 779 398 
Q 353 888 353 1747 
Q 353 2609 779 3096 
Q 1206 3584 1959 3584 
z
" transform="scale(0.015625)"/>
       <path id="DejaVuSans-69" d="M 603 3500 
L 1178 3500 
L 1178 0 
L 603 0 
L 603 3500 
z
M 603 4863 
L 1178 4863 
L 1178 4134 
L 603 4134 
L 603 4863 
z
" transform="scale(0.015625)"/>
       <path id="DejaVuSans-74" d="M 1172 4494 
L 1172 3500 
L 2356 3500 
L 2356 3053 
L 1172 3053 
L 1172 1153 
Q 1172 725 1289 603 
Q 1406 481 1766 481 
L 2356 481 
L 2356 0 
L 1766 0 
Q 1100 0 847 248 
Q 594 497 594 1153 
L 594 3053 
L 172 3053 
L 172 3500 
L 594 3500 
L 594 4494 
L 1172 4494 
z
" transform="scale(0.015625)"/>
       <path id="DejaVuSans-76" d="M 191 3500 
L 800 3500 
L 1894 563 
L 2988 3500 
L 3597 3500 
L 2284 0 
L 1503 0 
L 191 3500 
z
" transform="scale(0.015625)"/>
       <path id="DejaVuSans-29" d="M 513 4856 
L 1013 4856 
Q 1481 4119 1714 3412 
Q 1947 2706 1947 2009 
Q 1947 1309 1714 600 
Q 1481 -109 1013 -844 
L 513 -844 
Q 928 -128 1133 580 
Q 1338 1288 1338 2009 
Q 1338 2731 1133 3434 
Q 928 4138 513 4856 
z
" transform="scale(0.015625)"/>
      </defs>
      <use xlink:href="#DejaVuSans-46"/>
      <use xlink:href="#DejaVuSans-50" transform="translate(57.519531 0)"/>
      <use xlink:href="#DejaVuSans-52" transform="translate(117.822266 0)"/>
      <use xlink:href="#DejaVuSans-20" transform="translate(187.304688 0)"/>
      <use xlink:href="#DejaVuSans-28" transform="translate(219.091797 0)"/>
      <use xlink:href="#DejaVuSans-46" transform="translate(258.105469 0)"/>
      <use xlink:href="#DejaVuSans-61" transform="translate(306.5 0)"/>
      <use xlink:href="#DejaVuSans-6c" transform="translate(367.779297 0)"/>
      <use xlink:href="#DejaVuSans-73" transform="translate(395.5625 0)"/>
      <use xlink:href="#DejaVuSans-65" transform="translate(447.662109 0)"/>
      <use xlink:href="#DejaVuSans-20" transform="translate(509.185547 0)"/>
      <use xlink:href="#DejaVuSans-50" transform="translate(540.972656 0)"/>
      <use xlink:href="#DejaVuSans-6f" transform="translate(597.650391 0)"/>
      <use xlink:href="#DejaVuSans-73" transform="translate(658.832031 0)"/>
      <use xlink:href="#DejaVuSans-69" transform="translate(710.931641 0)"/>
      <use xlink:href="#DejaVuSans-74" transform="translate(738.714844 0)"/>
      <use xlink:href="#DejaVuSans-69" transform="translate(777.923828 0)"/>
      <use xlink:href="#DejaVuSans-76" transform="translate(805.707031 0)"/>
      <use xlink:href="#DejaVuSans-65" transform="translate(864.886719 0)"/>
      <use xlink:href="#DejaVuSans-20" transform="translate(926.410156 0)"/>
      <use xlink:href="#DejaVuSans-52" transform="translate(958.197266 0)"/>
      <use xlink:href="#DejaVuSans-61" transform="translate(1025.429688 0)"/>
      <use xlink:href="#DejaVuSans-74" transform="translate(1086.708984 0)"/>
      <use xlink:href="#DejaVuSans-65" transform="translate(1125.917969 0)"/>
      <use xlink:href="#DejaVuSans-29" transform="translate(1187.441406 0)"/>
     </g>
    </g>
   </g>
   <g id="matplotlib.axis_2">
    <g id="ytick_1">
     <g id="line2d_7">
      <defs>
       <path id="m9e76908ba9" d="M 0 0 
L -3.5 0 
" style="stroke: #000000; stroke-width: 0.8"/>
      </defs>
      <g>
       <use xlink:href="#m9e76908ba9" x="55.949375" y="361.96" style="stroke: #000000; stroke-width: 0.8"/>
      </g>
     </g>
     <g id="text_8">
      <!-- 0.0 -->
      <g transform="translate(26.685 367.278906) scale(0.14 -0.14)">
       <use xlink:href="#DejaVuSans-30"/>
       <use xlink:href="#DejaVuSans-2e" transform="translate(63.623047 0)"/>
       <use xlink:href="#DejaVuSans-30" transform="translate(95.410156 0)"/>
      </g>
     </g>
    </g>
    <g id="ytick_2">
     <g id="line2d_8">
      <g>
       <use xlink:href="#m9e76908ba9" x="55.949375" y="294.944" style="stroke: #000000; stroke-width: 0.8"/>
      </g>
     </g>
     <g id="text_9">
      <!-- 0.2 -->
      <g transform="translate(26.685 300.262906) scale(0.14 -0.14)">
       <use xlink:href="#DejaVuSans-30"/>
       <use xlink:href="#DejaVuSans-2e" transform="translate(63.623047 0)"/>
       <use xlink:href="#DejaVuSans-32" transform="translate(95.410156 0)"/>
      </g>
     </g>
    </g>
    <g id="ytick_3">
     <g id="line2d_9">
      <g>
       <use xlink:href="#m9e76908ba9" x="55.949375" y="227.928" style="stroke: #000000; stroke-width: 0.8"/>
      </g>
     </g>
     <g id="text_10">
      <!-- 0.4 -->
      <g transform="translate(26.685 233.246906) scale(0.14 -0.14)">
       <use xlink:href="#DejaVuSans-30"/>
       <use xlink:href="#DejaVuSans-2e" transform="translate(63.623047 0)"/>
       <use xlink:href="#DejaVuSans-34" transform="translate(95.410156 0)"/>
      </g>
     </g>
    </g>
    <g id="ytick_4">
     <g id="line2d_10">
      <g>
       <use xlink:href="#m9e76908ba9" x="55.949375" y="160.912" style="stroke: #000000; stroke-width: 0.8"/>
      </g>
     </g>
     <g id="text_11">
      <!-- 0.6 -->
      <g transform="translate(26.685 166.230906) scale(0.14 -0.14)">
       <use xlink:href="#DejaVuSans-30"/>
       <use xlink:href="#DejaVuSans-2e" transform="translate(63.623047 0)"/>
       <use xlink:href="#DejaVuSans-36" transform="translate(95.410156 0)"/>
      </g>
     </g>
    </g>
    <g id="ytick_5">
     <g id="line2d_11">
      <g>
       <use xlink:href="#m9e76908ba9" x="55.949375" y="93.896" style="stroke: #000000; stroke-width: 0.8"/>
      </g>
     </g>
     <g id="text_12">
      <!-- 0.8 -->
      <g transform="translate(26.685 99.214906) scale(0.14 -0.14)">
       <use xlink:href="#DejaVuSans-30"/>
       <use xlink:href="#DejaVuSans-2e" transform="translate(63.623047 0)"/>
       <use xlink:href="#DejaVuSans-38" transform="translate(95.410156 0)"/>
      </g>
     </g>
    </g>
    <g id="ytick_6">
     <g id="line2d_12">
      <g>
       <use xlink:href="#m9e76908ba9" x="55.949375" y="26.88" style="stroke: #000000; stroke-width: 0.8"/>
      </g>
     </g>
     <g id="text_13">
      <!-- 1.0 -->
      <g transform="translate(26.685 32.198906) scale(0.14 -0.14)">
       <use xlink:href="#DejaVuSans-31"/>
       <use xlink:href="#DejaVuSans-2e" transform="translate(63.623047 0)"/>
       <use xlink:href="#DejaVuSans-30" transform="translate(95.410156 0)"/>
      </g>
     </g>
    </g>
    <g id="text_14">
     <!-- TPR (True Positive Rate) -->
     <g transform="translate(19.3575 289.72125) rotate(-90) scale(0.16 -0.16)">
      <defs>
       <path id="DejaVuSans-54" d="M -19 4666 
L 3928 4666 
L 3928 4134 
L 2272 4134 
L 2272 0 
L 1638 0 
L 1638 4134 
L -19 4134 
L -19 4666 
z
" transform="scale(0.015625)"/>
       <path id="DejaVuSans-72" d="M 2631 2963 
Q 2534 3019 2420 3045 
Q 2306 3072 2169 3072 
Q 1681 3072 1420 2755 
Q 1159 2438 1159 1844 
L 1159 0 
L 581 0 
L 581 3500 
L 1159 3500 
L 1159 2956 
Q 1341 3275 1631 3429 
Q 1922 3584 2338 3584 
Q 2397 3584 2469 3576 
Q 2541 3569 2628 3553 
L 2631 2963 
z
" transform="scale(0.015625)"/>
       <path id="DejaVuSans-75" d="M 544 1381 
L 544 3500 
L 1119 3500 
L 1119 1403 
Q 1119 906 1312 657 
Q 1506 409 1894 409 
Q 2359 409 2629 706 
Q 2900 1003 2900 1516 
L 2900 3500 
L 3475 3500 
L 3475 0 
L 2900 0 
L 2900 538 
Q 2691 219 2414 64 
Q 2138 -91 1772 -91 
Q 1169 -91 856 284 
Q 544 659 544 1381 
z
M 1991 3584 
L 1991 3584 
z
" transform="scale(0.015625)"/>
      </defs>
      <use xlink:href="#DejaVuSans-54"/>
      <use xlink:href="#DejaVuSans-50" transform="translate(61.083984 0)"/>
      <use xlink:href="#DejaVuSans-52" transform="translate(121.386719 0)"/>
      <use xlink:href="#DejaVuSans-20" transform="translate(190.869141 0)"/>
      <use xlink:href="#DejaVuSans-28" transform="translate(222.65625 0)"/>
      <use xlink:href="#DejaVuSans-54" transform="translate(261.669922 0)"/>
      <use xlink:href="#DejaVuSans-72" transform="translate(308.003906 0)"/>
      <use xlink:href="#DejaVuSans-75" transform="translate(349.117188 0)"/>
      <use xlink:href="#DejaVuSans-65" transform="translate(412.496094 0)"/>
      <use xlink:href="#DejaVuSans-20" transform="translate(474.019531 0)"/>
      <use xlink:href="#DejaVuSans-50" transform="translate(505.806641 0)"/>
      <use xlink:href="#DejaVuSans-6f" transform="translate(562.484375 0)"/>
      <use xlink:href="#DejaVuSans-73" transform="translate(623.666016 0)"/>
      <use xlink:href="#DejaVuSans-69" transform="translate(675.765625 0)"/>
      <use xlink:href="#DejaVuSans-74" transform="translate(703.548828 0)"/>
      <use xlink:href="#DejaVuSans-69" transform="translate(742.757812 0)"/>
      <use xlink:href="#DejaVuSans-76" transform="translate(770.541016 0)"/>
      <use xlink:href="#DejaVuSans-65" transform="translate(829.720703 0)"/>
      <use xlink:href="#DejaVuSans-20" transform="translate(891.244141 0)"/>
      <use xlink:href="#DejaVuSans-52" transform="translate(923.03125 0)"/>
      <use xlink:href="#DejaVuSans-61" transform="translate(990.263672 0)"/>
      <use xlink:href="#DejaVuSans-74" transform="translate(1051.542969 0)"/>
      <use xlink:href="#DejaVuSans-65" transform="translate(1090.751953 0)"/>
      <use xlink:href="#DejaVuSans-29" transform="translate(1152.275391 0)"/>
     </g>
    </g>
   </g>
   <g id="QuadContourSet_2">
    <path d="M 55.949375 361.401533 
L 56.172762 361.28984 
L 57.289695 355.2584 
L 57.289695 355.2584 
L 59.169866 345.87616 
L 63.321135 325.1012 
L 63.321135 325.1012 
L 72.838116 277.51984 
L 97.381689 154.7997 
M 106.731582 108.050216 
L 122.965375 26.88 
L 122.965375 26.88 
" clip-path="url(#p58c402e6ba)" style="fill: none; stroke: #ff0000; stroke-width: 2"/>
   </g>
   <g id="patch_3">
    <path d="M 55.949375 361.96 
L 55.949375 26.88 
" style="fill: none; stroke: #000000; stroke-width: 0.8; stroke-linejoin: miter; stroke-linecap: square"/>
   </g>
   <g id="patch_4">
    <path d="M 391.029375 361.96 
L 391.029375 26.88 
" style="fill: none; stroke: #000000; stroke-width: 0.8; stroke-linejoin: miter; stroke-linecap: square"/>
   </g>
   <g id="patch_5">
    <path d="M 55.949375 361.96 
L 391.029375 361.96 
" style="fill: none; stroke: #000000; stroke-width: 0.8; stroke-linejoin: miter; stroke-linecap: square"/>
   </g>
   <g id="patch_6">
    <path d="M 55.949375 26.88 
L 391.029375 26.88 
" style="fill: none; stroke: #000000; stroke-width: 0.8; stroke-linejoin: miter; stroke-linecap: square"/>
   </g>
   <g id="text_15">
    <!-- $\eta$ or $\mathrm{ipv}_{\mathrm{ref}}$ -->
    <g transform="translate(180.289375 20.88) scale(0.18 -0.18)">
     <defs>
      <path id="DejaVuSans-Oblique-3b7" d="M 3703 2113 
L 3034 -1331 
L 2459 -1331 
L 3125 2094 
Q 3222 2591 3075 2838 
Q 2931 3084 2544 3084 
Q 2078 3084 1750 2788 
Q 1425 2491 1325 1978 
L 941 0 
L 363 0 
L 1044 3500 
L 1622 3500 
L 1516 2956 
Q 1781 3272 2094 3428 
Q 2403 3584 2769 3584 
Q 3372 3584 3609 3213 
Q 3844 2838 3703 2113 
z
" transform="scale(0.015625)"/>
      <path id="DejaVuSans-70" d="M 1159 525 
L 1159 -1331 
L 581 -1331 
L 581 3500 
L 1159 3500 
L 1159 2969 
Q 1341 3281 1617 3432 
Q 1894 3584 2278 3584 
Q 2916 3584 3314 3078 
Q 3713 2572 3713 1747 
Q 3713 922 3314 415 
Q 2916 -91 2278 -91 
Q 1894 -91 1617 61 
Q 1341 213 1159 525 
z
M 3116 1747 
Q 3116 2381 2855 2742 
Q 2594 3103 2138 3103 
Q 1681 3103 1420 2742 
Q 1159 2381 1159 1747 
Q 1159 1113 1420 752 
Q 1681 391 2138 391 
Q 2594 391 2855 752 
Q 3116 1113 3116 1747 
z
" transform="scale(0.015625)"/>
      <path id="DejaVuSans-66" d="M 2375 4863 
L 2375 4384 
L 1825 4384 
Q 1516 4384 1395 4259 
Q 1275 4134 1275 3809 
L 1275 3500 
L 2222 3500 
L 2222 3053 
L 1275 3053 
L 1275 0 
L 697 0 
L 697 3053 
L 147 3053 
L 147 3500 
L 697 3500 
L 697 3744 
Q 697 4328 969 4595 
Q 1241 4863 1831 4863 
L 2375 4863 
z
" transform="scale(0.015625)"/>
     </defs>
     <use xlink:href="#DejaVuSans-Oblique-3b7" transform="translate(0 0.015625)"/>
     <use xlink:href="#DejaVuSans-20" transform="translate(63.378906 0.015625)"/>
     <use xlink:href="#DejaVuSans-6f" transform="translate(95.166016 0.015625)"/>
     <use xlink:href="#DejaVuSans-72" transform="translate(156.347656 0.015625)"/>
     <use xlink:href="#DejaVuSans-20" transform="translate(197.460938 0.015625)"/>
     <use xlink:href="#DejaVuSans-69" transform="translate(229.248047 0.015625)"/>
     <use xlink:href="#DejaVuSans-70" transform="translate(257.03125 0.015625)"/>
     <use xlink:href="#DejaVuSans-76" transform="translate(320.507812 0.015625)"/>
     <use xlink:href="#DejaVuSans-72" transform="translate(380.644531 -16.390625) scale(0.7)"/>
     <use xlink:href="#DejaVuSans-65" transform="translate(409.423828 -16.390625) scale(0.7)"/>
     <use xlink:href="#DejaVuSans-66" transform="translate(452.490234 -16.390625) scale(0.7)"/>
    </g>
   </g>
   <g id="text_16">
    <g clip-path="url(#p58c402e6ba)">
     <!-- 0.833 -->
     <g style="fill: #ff0000" transform="translate(101.889101 151.832918) rotate(-78.61836) scale(0.14 -0.14)">
      <defs>
       <path id="DejaVuSans-33" d="M 2597 2516 
Q 3050 2419 3304 2112 
Q 3559 1806 3559 1356 
Q 3559 666 3084 287 
Q 2609 -91 1734 -91 
Q 1441 -91 1130 -33 
Q 819 25 488 141 
L 488 750 
Q 750 597 1062 519 
Q 1375 441 1716 441 
Q 2309 441 2620 675 
Q 2931 909 2931 1356 
Q 2931 1769 2642 2001 
Q 2353 2234 1838 2234 
L 1294 2234 
L 1294 2753 
L 1863 2753 
Q 2328 2753 2575 2939 
Q 2822 3125 2822 3475 
Q 2822 3834 2567 4026 
Q 2313 4219 1838 4219 
Q 1578 4219 1281 4162 
Q 984 4106 628 3988 
L 628 4550 
Q 988 4650 1302 4700 
Q 1616 4750 1894 4750 
Q 2613 4750 3031 4423 
Q 3450 4097 3450 3541 
Q 3450 3153 3228 2886 
Q 3006 2619 2597 2516 
z
" transform="scale(0.015625)"/>
      </defs>
      <use xlink:href="#DejaVuSans-30"/>
      <use xlink:href="#DejaVuSans-2e" transform="translate(63.623047 0)"/>
      <use xlink:href="#DejaVuSans-38" transform="translate(95.410156 0)"/>
      <use xlink:href="#DejaVuSans-33" transform="translate(159.033203 0)"/>
      <use xlink:href="#DejaVuSans-33" transform="translate(222.65625 0)"/>
     </g>
    </g>
   </g>
  </g>
 </g>
 <defs>
  <clipPath id="p58c402e6ba">
   <rect x="55.949375" y="26.88" width="335.08" height="335.08"/>
  </clipPath>
 </defs>
</svg>
